<svg width="104" height="32" viewBox="0 0 104 32" fill="none" xmlns="http://www.w3.org/2000/svg">
<path d="M103.819 15.1973L96.1441 0.585034C95.9249 0.129252 95.5278 -0.0340133 95.1581 0.0136058C95.117 0.00680303 95.0759 0 95.028 0H1.77334C0.79424 0 0 0.897959 0 2.01361V29.9864C0 31.0952 0.79424 32 1.77334 32H95.0348C95.0759 32 95.117 31.9932 95.1581 31.9864C95.5278 32.0408 95.9249 31.8776 96.1509 31.415L103.826 16.8027C104.059 16.3061 104.059 15.7007 103.819 15.1973Z" fill="#F7A12E"/>
<path d="M103.882 15.4033L96.0818 0.582792C95.8628 0.128757 95.466 -0.0338829 95.0965 0.0135536C95.0554 0.00677696 95.0144 0 94.9665 0H93.9675C94.2754 0.0271066 94.5696 0.210077 94.7544 0.582792L102.555 15.4033C102.719 15.7354 102.719 16.142 102.555 16.474L94.7544 31.2946C94.5765 31.6673 94.2754 31.8503 93.9675 31.8774H94.9665C95.0075 31.8774 95.0486 31.8706 95.0896 31.8638C95.4591 31.918 95.856 31.7554 96.0818 31.2946L103.882 16.474C104.04 16.142 104.04 15.7354 103.882 15.4033Z" fill="#D86600"/>
</svg>
