<svg width="45" height="57" viewBox="0 0 45 57" fill="none" xmlns="http://www.w3.org/2000/svg">
<path d="M28.0435 -1.20431e-06C28.6572 0.00219603 29.1524 0.49734 29.1524 1.11108L29.1524 33.1423L42.9903 27.6774C43.4537 27.4954 43.9836 27.6424 44.2825 28.0409C44.5843 28.4394 44.5828 28.9895 44.2766 29.3848L23.3785 56.5669C23.1692 56.8398 22.8428 57 22.5004 57C22.1553 57 21.8308 56.8398 21.6207 56.5669L0.722903 29.3846C0.569865 29.1851 0.492186 28.9471 0.492186 28.7075C0.492186 28.474 0.566812 28.2383 0.716308 28.0409C1.01554 27.6424 1.54586 27.494 2.00925 27.6774L15.8464 33.1438L15.8456 1.11096C15.8464 0.49734 16.3422 0.0020745 16.9545 0.00207448L28.0435 -1.20431e-06Z" fill="#F2C94C"/>
</svg>
