<svg width="199" height="228" viewBox="0 0 199 228" fill="none" xmlns="http://www.w3.org/2000/svg">
<path d="M165.499 0.0855145C164.718 -0.190203 163.861 0.219571 163.585 1.00077C163.31 1.78197 163.72 2.63877 164.501 2.91449L165.499 0.0855145ZM194 93L192.515 92.7879L194 93ZM68.9994 173L68.8739 171.505L68.9994 173ZM9.5 227.5L18.2192 212.534L0.898776 212.466L9.5 227.5ZM11.0076 225.567C11.0144 224.739 10.3483 224.062 9.51991 224.055C8.69151 224.048 8.01447 224.714 8.0077 225.543L11.0076 225.567ZM8.26006 217.705C8.20843 218.532 8.83684 219.244 9.66366 219.296C10.4905 219.347 11.2026 218.719 11.2542 217.892L8.26006 217.705ZM11.5695 214.09C11.6565 213.266 11.0591 212.528 10.2353 212.441C9.41143 212.354 8.67307 212.951 8.58612 213.775L11.5695 214.09ZM9.87961 205.936C9.6895 206.742 10.189 207.55 10.9954 207.74C11.8017 207.93 12.6094 207.43 12.7995 206.624L9.87961 205.936ZM13.8115 203.017C14.0706 202.23 13.6429 201.382 12.8561 201.123C12.0692 200.863 11.2213 201.291 10.9621 202.078L13.8115 203.017ZM14.2741 194.72C13.8512 195.432 14.0858 196.352 14.7981 196.775C15.5105 197.198 16.4308 196.964 16.8537 196.251L14.2741 194.72ZM18.928 193.196C19.4343 192.54 19.3131 191.598 18.6574 191.092C18.0017 190.585 17.0597 190.707 16.5534 191.362L18.928 193.196ZM22.2212 185.594C21.5772 186.115 21.4774 187.059 21.9985 187.704C22.5195 188.348 23.464 188.447 24.108 187.926L22.2212 185.594ZM27.1283 185.73C27.8214 185.276 28.0154 184.346 27.5616 183.653C27.1078 182.96 26.1781 182.766 25.485 183.22L27.1283 185.73ZM32.512 179.423C31.7554 179.761 31.4155 180.647 31.7528 181.404C32.0902 182.161 32.977 182.501 33.7337 182.163L32.512 179.423ZM37.2471 180.73C38.0233 180.441 38.4178 179.577 38.1283 178.8C37.8388 178.024 36.9749 177.63 36.1987 177.919L37.2471 180.73ZM43.72 175.545C42.9194 175.758 42.4427 176.579 42.6555 177.38C42.8682 178.181 43.6897 178.657 44.4903 178.445L43.72 175.545ZM48.2017 177.536C49.0099 177.354 49.5176 176.552 49.3357 175.743C49.1538 174.935 48.3512 174.428 47.543 174.609L48.2017 177.536ZM55.2627 173.132C54.4448 173.264 53.8885 174.034 54.0202 174.852C54.1518 175.67 54.9216 176.226 55.7395 176.094L55.2627 173.132ZM59.555 175.53C60.376 175.419 60.9515 174.664 60.8405 173.843C60.7295 173.022 59.974 172.446 59.153 172.557L59.555 175.53ZM66.8946 171.68C66.0697 171.757 65.4633 172.488 65.5401 173.313C65.6169 174.138 66.3479 174.744 67.1728 174.667L66.8946 171.68ZM71.1408 174.328C71.9665 174.261 72.5812 173.537 72.5138 172.711C72.4464 171.885 71.7224 171.27 70.8967 171.338L71.1408 174.328ZM78.9171 170.714C78.091 170.775 77.4712 171.495 77.5328 172.321C77.5944 173.147 78.314 173.767 79.1402 173.705L78.9171 170.714ZM83.131 173.412C83.9573 173.353 84.5786 172.634 84.5188 171.808C84.459 170.982 83.7407 170.361 82.9144 170.42L83.131 173.412ZM90.9367 169.847C90.1104 169.906 89.4882 170.624 89.5471 171.45C89.6059 172.276 90.3235 172.899 91.1499 172.84L90.9367 169.847ZM95.1434 172.553C95.9696 172.493 96.5909 171.775 96.531 170.949C96.4711 170.122 95.7527 169.501 94.9264 169.561L95.1434 172.553ZM102.937 168.956C102.112 169.022 101.495 169.745 101.561 170.57C101.627 171.396 102.35 172.012 103.175 171.947L102.937 168.956ZM107.177 171.617C108.002 171.546 108.614 170.82 108.543 169.994C108.473 169.169 107.746 168.557 106.921 168.628L107.177 171.617ZM114.896 167.876C114.072 167.962 113.474 168.7 113.56 169.524C113.646 170.348 114.384 170.946 115.208 170.86L114.896 167.876ZM119.218 170.416C120.04 170.32 120.629 169.574 120.532 168.752C120.436 167.929 119.69 167.34 118.868 167.437L119.218 170.416ZM126.762 166.378C125.943 166.503 125.381 167.269 125.506 168.088C125.632 168.907 126.397 169.469 127.216 169.343L126.762 166.378ZM131.221 168.684C132.037 168.539 132.581 167.761 132.437 166.945C132.293 166.13 131.515 165.585 130.699 165.73L131.221 168.684ZM138.478 164.128C137.672 164.32 137.175 165.129 137.367 165.935C137.56 166.741 138.369 167.238 139.175 167.046L138.478 164.128ZM143.113 166.03C143.911 165.808 144.378 164.98 144.156 164.182C143.933 163.384 143.106 162.918 142.308 163.14L143.113 166.03ZM149.801 160.694C149.026 160.988 148.638 161.855 148.932 162.629C149.227 163.403 150.094 163.792 150.868 163.497L149.801 160.694ZM154.655 161.937C155.411 161.6 155.751 160.713 155.414 159.956C155.077 159.199 154.19 158.859 153.434 159.196L154.655 161.937ZM160.378 155.567C159.671 155.999 159.447 156.922 159.879 157.629C160.31 158.336 161.233 158.56 161.94 158.128L160.378 155.567ZM165.38 155.859C166.055 155.379 166.212 154.442 165.731 153.767C165.251 153.092 164.314 152.935 163.639 153.416L165.38 155.859ZM169.637 148.435C169.041 149.01 169.024 149.96 169.599 150.556C170.174 151.152 171.124 151.169 171.72 150.594L169.637 148.435ZM174.578 147.625C175.13 147.008 175.077 146.06 174.46 145.507C173.842 144.955 172.894 145.008 172.342 145.625L174.578 147.625ZM177.132 139.456C176.668 140.142 176.85 141.075 177.537 141.538C178.223 142.001 179.156 141.82 179.619 141.133L177.132 139.456ZM181.808 137.659C182.229 136.945 181.991 136.026 181.277 135.605C180.563 135.185 179.644 135.423 179.223 136.137L181.808 137.659ZM182.844 129.133C182.502 129.888 182.836 130.777 183.591 131.119C184.345 131.461 185.234 131.127 185.576 130.373L182.844 129.133ZM187.168 126.638C187.476 125.869 187.102 124.996 186.333 124.688C185.564 124.38 184.691 124.754 184.383 125.523L187.168 126.638ZM187.034 118.047C186.786 118.838 187.226 119.679 188.017 119.927C188.807 120.175 189.649 119.735 189.897 118.944L187.034 118.047ZM191.042 115.064C191.264 114.266 190.797 113.439 189.999 113.217C189.201 112.995 188.374 113.463 188.152 114.261L191.042 115.064ZM190.066 106.516C189.889 107.325 190.402 108.125 191.211 108.302C192.02 108.479 192.82 107.966 192.997 107.157L190.066 106.516ZM193.806 103.237C193.964 102.424 193.433 101.637 192.62 101.478C191.806 101.32 191.019 101.851 190.861 102.665L193.806 103.237ZM192.217 94.8055C192.093 95.6245 192.655 96.3895 193.474 96.5142C194.293 96.639 195.058 96.0761 195.183 95.2572L192.217 94.8055ZM195.759 91.2488C195.871 90.428 195.296 89.6719 194.475 89.56C193.655 89.4481 192.898 90.0228 192.786 90.8436L195.759 91.2488ZM193.725 83.1883C193.636 84.0119 194.231 84.7519 195.055 84.8411C195.879 84.9304 196.619 84.335 196.708 83.5114L193.725 83.1883ZM197.097 79.652C197.173 78.8271 196.567 78.0963 195.742 78.0197C194.917 77.9431 194.186 78.5497 194.109 79.3745L197.097 79.652ZM194.693 71.6843C194.645 72.5113 195.277 73.2206 196.104 73.2686C196.931 73.3165 197.64 72.685 197.688 71.8579L194.693 71.6843ZM197.876 67.9691C197.907 67.1413 197.262 66.4445 196.434 66.4127C195.606 66.381 194.91 67.0263 194.878 67.8541L197.876 67.9691ZM195.005 60.1767C195.01 61.0051 195.686 61.6722 196.515 61.6667C197.343 61.6612 198.01 60.9852 198.005 60.1568L195.005 60.1767ZM197.929 56.2363C197.902 55.4083 197.209 54.759 196.381 54.786C195.553 54.8131 194.903 55.5062 194.93 56.3342L197.929 56.2363ZM194.457 48.6963C194.535 49.5211 195.266 50.1272 196.091 50.0501C196.915 49.973 197.522 49.2418 197.444 48.417L194.457 48.6963ZM197.011 44.5166C196.904 43.695 196.152 43.1154 195.33 43.2219C194.509 43.3284 193.929 44.0807 194.036 44.9022L197.011 44.5166ZM192.748 37.393C192.924 38.2025 193.723 38.716 194.533 38.54C195.342 38.3639 195.856 37.565 195.68 36.7555L192.748 37.393ZM194.744 32.9165C194.526 32.117 193.702 31.645 192.903 31.8621C192.103 32.0793 191.631 32.9034 191.849 33.7029L194.744 32.9165ZM189.446 26.5545C189.76 27.3212 190.636 27.6884 191.403 27.3747C192.169 27.0609 192.536 26.1851 192.223 25.4183L189.446 26.5545ZM190.576 21.7775C190.206 21.0361 189.305 20.7349 188.564 21.1046C187.823 21.4743 187.521 22.375 187.891 23.1164L190.576 21.7775ZM184.005 16.7294C184.497 17.3956 185.436 17.5366 186.102 17.0442C186.769 16.5518 186.91 15.6126 186.417 14.9464L184.005 16.7294ZM183.88 11.8405C183.325 11.2255 182.377 11.1768 181.762 11.7319C181.147 12.2869 181.098 13.2354 181.653 13.8504L183.88 11.8405ZM176.135 8.86704C176.803 9.35664 177.742 9.21179 178.231 8.54352C178.721 7.87525 178.576 6.93661 177.908 6.44702L176.135 8.86704ZM174.552 4.2346C173.84 3.81248 172.919 4.04815 172.497 4.76097C172.075 5.47379 172.311 6.39383 173.024 6.81595L174.552 4.2346ZM166.271 3.5699C167.043 3.86998 167.912 3.48727 168.213 2.7151C168.513 1.94293 168.13 1.0737 167.358 0.773629L166.271 3.5699ZM11.2542 217.892C11.3349 216.601 11.4384 215.333 11.5695 214.09L8.58612 213.775C8.4499 215.066 8.34304 216.376 8.26006 217.705L11.2542 217.892ZM12.7995 206.624C13.0906 205.389 13.426 204.187 13.8115 203.017L10.9621 202.078C10.5473 203.337 10.1889 204.624 9.87961 205.936L12.7995 206.624ZM16.8537 196.251C17.4778 195.2 18.167 194.181 18.928 193.196L16.5534 191.362C15.7164 192.446 14.959 193.566 14.2741 194.72L16.8537 196.251ZM24.108 187.926C25.0447 187.169 26.0497 186.436 27.1283 185.73L25.485 183.22C24.3253 183.979 23.2388 184.771 22.2212 185.594L24.108 187.926ZM33.7337 182.163C34.8481 181.666 36.0183 181.188 37.2471 180.73L36.1987 177.919C34.9145 178.398 33.6863 178.9 32.512 179.423L33.7337 182.163ZM44.4903 178.445C45.6841 178.127 46.9207 177.825 48.2017 177.536L47.543 174.609C46.2264 174.906 44.9525 175.218 43.72 175.545L44.4903 178.445ZM55.7395 176.094C56.9769 175.895 58.2484 175.707 59.555 175.53L59.153 172.557C57.8224 172.737 56.526 172.929 55.2627 173.132L55.7395 176.094ZM67.1728 174.667C67.8161 174.608 68.4667 174.55 69.1248 174.495L68.8739 171.505C68.2069 171.561 67.5472 171.62 66.8946 171.68L67.1728 174.667ZM69.1248 174.495C69.7994 174.438 70.4714 174.383 71.1408 174.328L70.8967 171.338C70.2251 171.393 69.5509 171.448 68.8739 171.505L69.1248 174.495ZM79.1402 173.705C80.4815 173.605 81.8117 173.508 83.131 173.412L82.9144 170.42C81.5935 170.516 80.261 170.614 78.9171 170.714L79.1402 173.705ZM91.1499 172.84C92.4932 172.744 93.8245 172.649 95.1434 172.553L94.9264 169.561C93.6093 169.656 92.2795 169.752 90.9367 169.847L91.1499 172.84ZM103.175 171.947C104.523 171.84 105.857 171.73 107.177 171.617L106.921 168.628C105.608 168.74 104.28 168.849 102.937 168.956L103.175 171.947ZM115.208 170.86C116.56 170.719 117.897 170.572 119.218 170.416L118.868 167.437C117.561 167.59 116.237 167.737 114.896 167.876L115.208 170.86ZM127.216 169.343C128.569 169.136 129.904 168.917 131.221 168.684L130.699 165.73C129.406 165.958 128.094 166.174 126.762 166.378L127.216 169.343ZM139.175 167.046C140.508 166.727 141.821 166.389 143.113 166.03L142.308 163.14C141.054 163.489 139.778 163.818 138.478 164.128L139.175 167.046ZM150.868 163.497C152.154 163.008 153.417 162.488 154.655 161.937L153.434 159.196C152.249 159.724 151.038 160.223 149.801 160.694L150.868 163.497ZM161.94 158.128C163.114 157.412 164.261 156.657 165.38 155.859L163.639 153.416C162.579 154.171 161.492 154.887 160.378 155.567L161.94 158.128ZM171.72 150.594C172.699 149.649 173.652 148.66 174.578 147.625L172.342 145.625C171.465 146.605 170.563 147.541 169.637 148.435L171.72 150.594ZM179.619 141.133C180.371 140.017 181.101 138.86 181.808 137.659L179.223 136.137C178.546 137.286 177.849 138.392 177.132 139.456L179.619 141.133ZM185.576 130.373C186.125 129.164 186.655 127.92 187.168 126.638L184.383 125.523C183.886 126.765 183.373 127.967 182.844 129.133L185.576 130.373ZM189.897 118.944C190.292 117.682 190.674 116.389 191.042 115.064L188.152 114.261C187.792 115.555 187.419 116.817 187.034 118.047L189.897 118.944ZM192.997 107.157C193.277 105.877 193.547 104.57 193.806 103.237L190.861 102.665C190.606 103.975 190.341 105.259 190.066 106.516L192.997 107.157ZM195.183 95.2572C195.286 94.5817 195.387 93.9 195.485 93.2121L192.515 92.7879C192.418 93.4667 192.319 94.1393 192.217 94.8055L195.183 95.2572ZM195.485 93.2121C195.579 92.553 195.67 91.8985 195.759 91.2488L192.786 90.8436C192.699 91.4869 192.608 92.135 192.515 92.7879L195.485 93.2121ZM196.708 83.5114C196.85 82.2042 196.979 80.9179 197.097 79.652L194.109 79.3745C193.993 80.6249 193.865 81.896 193.725 83.1883L196.708 83.5114ZM197.688 71.8579C197.764 70.5372 197.827 69.2411 197.876 67.9691L194.878 67.8541C194.83 69.1061 194.768 70.3827 194.693 71.6843L197.688 71.8579ZM198.005 60.1568C197.996 58.8203 197.971 57.5137 197.929 56.2363L194.93 56.3342C194.971 57.5849 194.996 58.8655 195.005 60.1767L198.005 60.1568ZM197.444 48.417C197.319 47.0804 197.175 45.7806 197.011 44.5166L194.036 44.9022C194.195 46.1298 194.336 47.3941 194.457 48.6963L197.444 48.417ZM195.68 36.7555C195.391 35.4294 195.079 34.1503 194.744 32.9165L191.849 33.7029C192.17 34.8859 192.47 36.1153 192.748 37.393L195.68 36.7555ZM192.223 25.4183C191.701 24.1445 191.152 22.932 190.576 21.7775L187.891 23.1164C188.433 24.2029 188.952 25.3477 189.446 26.5545L192.223 25.4183ZM186.417 14.9464C185.598 13.8376 184.75 12.8044 183.88 11.8405L181.653 13.8504C182.458 14.7419 183.243 15.6994 184.005 16.7294L186.417 14.9464ZM177.908 6.44702C176.799 5.63441 175.677 4.90059 174.552 4.2346L173.024 6.81595C174.069 7.43515 175.109 8.11551 176.135 8.86704L177.908 6.44702ZM167.358 0.773629C166.732 0.530416 166.112 0.30172 165.499 0.0855145L164.501 2.91449C165.086 3.12121 165.677 3.33905 166.271 3.5699L167.358 0.773629Z" fill="#FFD300"/>
</svg>
