<?xml version="1.0" encoding="UTF-8"?>
<svg width="84px" height="99px" viewBox="0 0 84 99" version="1.1" xmlns="http://www.w3.org/2000/svg" xmlns:xlink="http://www.w3.org/1999/xlink">
    <!-- Generator: sketchtool 54 (76480) - https://sketchapp.com -->
    <title>2D843603-BE3D-4138-8BDF-ADABAC3A5EDC</title>
    <desc>Created with sketchtool.</desc>
    <g id="Pridavanie-na-plochu---iOS" stroke="none" stroke-width="1" fill="none" fill-rule="evenodd">
        <g id="Add-to-home---SAFARI-" transform="translate(-222.000000, -488.000000)">
            <g id="Popup" transform="translate(58.000000, 476.000000)">
                <g id="cely-panel-s-ikonou" transform="translate(164.000000, 12.000000)">
                    <rect id="Rectangle" fill="#F3F2F9" fill-rule="nonzero" x="0" y="0" width="84" height="99" rx="8"></rect>
                    <g id="ikona-s-textom" transform="translate(18.000000, 11.000000)">
                        <path d="M12.9080078,57.3996094 L15.2498047,57.3996094 C16.4228516,57.3996094 17.2349609,58.2246094 17.2349609,59.40625 C17.2349609,60.5664062 16.4056641,61.3871094 15.2412109,61.3871094 L13.6814453,61.3871094 L13.6814453,63.6 L12.9080078,63.6 L12.9080078,57.3996094 Z M13.6814453,58.0871094 L13.6814453,60.6996094 L15.0478516,60.6996094 C15.9287109,60.6996094 16.4400391,60.2269531 16.4400391,59.40625 C16.4400391,58.5554687 15.9458984,58.0871094 15.0478516,58.0871094 L13.6814453,58.0871094 Z M18.4037109,63.6 L18.4037109,58.9679687 L19.1083984,58.9679687 L19.1083984,59.6554687 L19.1771484,59.6554687 C19.3146484,59.2042969 19.8474609,58.8863281 20.4619141,58.8863281 C20.5822266,58.8863281 20.7369141,58.8949219 20.8314453,58.9078125 L20.8314453,59.646875 C20.7712891,59.6296875 20.5048828,59.6039062 20.3587891,59.6039062 C19.6541016,59.6039062 19.1427734,60.0765625 19.1427734,60.7296875 L19.1427734,63.6 L18.4037109,63.6 Z M21.7724609,63.6 L21.7724609,58.9679687 L22.5115234,58.9679687 L22.5115234,63.6 L21.7724609,63.6 Z M22.1419922,58.0742187 C21.8583984,58.0742187 21.6263672,57.8421875 21.6263672,57.5585937 C21.6263672,57.275 21.8583984,57.0429687 22.1419922,57.0429687 C22.4255859,57.0429687 22.6576172,57.275 22.6576172,57.5585937 C22.6576172,57.8421875 22.4255859,58.0742187 22.1419922,58.0742187 Z M25.6353516,63.6816406 C24.4494141,63.6816406 23.6888672,62.740625 23.6888672,61.2839844 C23.6888672,59.8316406 24.4580078,58.8863281 25.6353516,58.8863281 C26.2798828,58.8863281 26.8255859,59.1914062 27.0876953,59.6984375 L27.1521484,59.6984375 L27.1521484,57.1289062 L27.8912109,57.1289062 L27.8912109,63.6 L27.1865234,63.6 L27.1865234,62.8609375 L27.1177734,62.8609375 C26.8255859,63.3765625 26.2755859,63.6816406 25.6353516,63.6816406 Z M25.8072266,59.5523437 C24.9650391,59.5523437 24.4537109,60.2054687 24.4537109,61.2839844 C24.4537109,62.3667969 24.9607422,63.015625 25.8072266,63.015625 C26.6494141,63.015625 27.1693359,62.3539062 27.1693359,61.2839844 C27.1693359,60.2226562 26.6451172,59.5523437 25.8072266,59.5523437 Z M30.7529297,63.0328125 C31.5134766,63.0328125 32.0763672,62.534375 32.0763672,61.8726562 L32.0763672,61.4472656 L30.8302734,61.5289062 C30.1255859,61.5761719 29.8162109,61.8210937 29.8162109,62.2851562 C29.8162109,62.7578125 30.2158203,63.0328125 30.7529297,63.0328125 Z M30.6154297,63.6816406 C29.7173828,63.6816406 29.0513672,63.1488281 29.0513672,62.3023437 C29.0513672,61.4730469 29.6615234,60.9960937 30.7400391,60.9316406 L32.0763672,60.85 L32.0763672,60.4289062 C32.0763672,59.8574219 31.7197266,59.54375 31.0279297,59.54375 C30.4736328,59.54375 30.0869141,59.7542969 29.9837891,60.1195312 L29.2361328,60.1195312 C29.3349609,59.3761719 30.0654297,58.8863281 31.0537109,58.8863281 C32.1837891,58.8863281 32.8154297,59.4664062 32.8154297,60.4289062 L32.8154297,63.6 L32.1107422,63.6 L32.1107422,62.9167969 L32.0419922,62.9167969 C31.7412109,63.4109375 31.2341797,63.6816406 30.6154297,63.6816406 Z M34.4912109,57.7691406 L35.2302734,57.7691406 L35.2302734,58.9679687 L36.2615234,58.9679687 L36.2615234,59.5867187 L35.2302734,59.5867187 L35.2302734,62.2078125 C35.2302734,62.7535156 35.4365234,62.9855469 35.9177734,62.9855469 C36.0509766,62.9855469 36.1240234,62.98125 36.2615234,62.9683594 L36.2615234,63.5914062 C36.1154297,63.6171875 35.9736328,63.634375 35.8275391,63.634375 C34.8736328,63.634375 34.4912109,63.2820312 34.4912109,62.396875 L34.4912109,59.5867187 L33.7435547,59.5867187 L33.7435547,58.9679687 L34.4912109,58.9679687 L34.4912109,57.7691406 Z M35.8017578,56.209375 L36.5666016,56.209375 L36.3173828,58.3148437 L35.8017578,58.3148437 L35.8017578,56.209375 Z M4.82558594,74.8 L4.82558594,70.1679687 L5.53027344,70.1679687 L5.53027344,70.8984375 L5.59902344,70.8984375 C5.83105469,70.3871094 6.28222656,70.0863281 6.99121094,70.0863281 C8.03105469,70.0863281 8.61113281,70.7007812 8.61113281,71.8007812 L8.61113281,74.8 L7.87207031,74.8 L7.87207031,71.98125 C7.87207031,71.1476562 7.51972656,70.7523437 6.78066406,70.7523437 C6.04160156,70.7523437 5.56464844,71.2464844 5.56464844,72.0585937 L5.56464844,74.8 L4.82558594,74.8 Z M11.3869141,74.2328125 C12.1474609,74.2328125 12.7103516,73.734375 12.7103516,73.0726562 L12.7103516,72.6472656 L11.4642578,72.7289062 C10.7595703,72.7761719 10.4501953,73.0210937 10.4501953,73.4851562 C10.4501953,73.9578125 10.8498047,74.2328125 11.3869141,74.2328125 Z M11.2494141,74.8816406 C10.3513672,74.8816406 9.68535156,74.3488281 9.68535156,73.5023437 C9.68535156,72.6730469 10.2955078,72.1960937 11.3740234,72.1316406 L12.7103516,72.05 L12.7103516,71.6289062 C12.7103516,71.0574219 12.3537109,70.74375 11.6619141,70.74375 C11.1076172,70.74375 10.7208984,70.9542969 10.6177734,71.3195312 L9.87011719,71.3195312 C9.96894531,70.5761719 10.6994141,70.0863281 11.6876953,70.0863281 C12.8177734,70.0863281 13.4494141,70.6664062 13.4494141,71.6289062 L13.4494141,74.8 L12.7447266,74.8 L12.7447266,74.1167969 L12.6759766,74.1167969 C12.3751953,74.6109375 11.8681641,74.8816406 11.2494141,74.8816406 Z M19.5552734,70.0863281 C20.7369141,70.0863281 21.5017578,71.0273437 21.5017578,72.4839844 C21.5017578,73.9320312 20.7326172,74.8816406 19.5552734,74.8816406 C18.8935547,74.8816406 18.3607422,74.59375 18.1072266,74.1039062 L18.0384766,74.1039062 L18.0384766,76.346875 L17.2994141,76.346875 L17.2994141,70.1679687 L18.0041016,70.1679687 L18.0041016,70.9414062 L18.0728516,70.9414062 C18.3693359,70.4085937 18.9236328,70.0863281 19.5552734,70.0863281 Z M19.3791016,74.215625 C20.2298828,74.215625 20.7369141,73.5667969 20.7369141,72.4839844 C20.7369141,71.4011719 20.2298828,70.7523437 19.3833984,70.7523437 C18.5455078,70.7523437 18.0169922,71.4183594 18.0169922,72.4839844 C18.0169922,73.5453125 18.5455078,74.215625 19.3791016,74.215625 Z M22.7048828,74.8 L22.7048828,68.3289062 L23.4439453,68.3289062 L23.4439453,74.8 L22.7048828,74.8 Z M26.7826172,74.8816406 C25.4634766,74.8816406 24.6470703,73.9707031 24.6470703,72.4839844 C24.6470703,70.9929687 25.4634766,70.0863281 26.7826172,70.0863281 C28.1017578,70.0863281 28.9181641,70.9929687 28.9181641,72.4839844 C28.9181641,73.9707031 28.1017578,74.8816406 26.7826172,74.8816406 Z M26.7826172,74.215625 C27.6591797,74.215625 28.1533203,73.5796875 28.1533203,72.4839844 C28.1533203,71.3839844 27.6591797,70.7523437 26.7826172,70.7523437 C25.9060547,70.7523437 25.4119141,71.3839844 25.4119141,72.4839844 C25.4119141,73.5796875 25.9060547,74.215625 26.7826172,74.215625 Z M33.9111328,71.5859375 L33.1634766,71.5859375 C33.0431641,71.1261719 32.6349609,70.7523437 31.9689453,70.7523437 C31.1353516,70.7523437 30.6111328,71.4183594 30.6111328,72.4667969 C30.6111328,73.5367187 31.1439453,74.215625 31.9689453,74.215625 C32.5919922,74.215625 33.0259766,73.9277344 33.1634766,73.4035156 L33.9111328,73.4035156 C33.7779297,74.2542969 33.0861328,74.8816406 31.9732422,74.8816406 C30.6755859,74.8816406 29.8462891,73.940625 29.8462891,72.4667969 C29.8462891,71.0230469 30.6712891,70.0863281 31.9689453,70.0863281 C33.0947266,70.0863281 33.7822266,70.7609375 33.9111328,71.5859375 Z M35.0455078,74.8 L35.0455078,68.3289062 L35.7845703,68.3289062 L35.7845703,70.8984375 L35.8533203,70.8984375 C36.0853516,70.3871094 36.5708984,70.0863281 37.2798828,70.0863281 C38.2595703,70.0863281 38.8783203,70.7136719 38.8783203,71.8007812 L38.8783203,74.8 L38.1392578,74.8 L38.1392578,71.98125 C38.1392578,71.1605469 37.7697266,70.7523437 37.0693359,70.7523437 C36.2400391,70.7523437 35.7845703,71.2765625 35.7845703,72.0585937 L35.7845703,74.8 L35.0455078,74.8 Z M43.9744141,70.1679687 L43.9744141,74.8 L43.2697266,74.8 L43.2697266,74.0738281 L43.2009766,74.0738281 C42.9689453,74.5894531 42.4748047,74.8816406 41.7658203,74.8816406 C40.7259766,74.8816406 40.1845703,74.2628906 40.1845703,73.1671875 L40.1845703,70.1679687 L40.9236328,70.1679687 L40.9236328,72.9867187 C40.9236328,73.8203125 41.2330078,74.2070312 41.9720703,74.2070312 C42.7884766,74.2070312 43.2353516,73.7214844 43.2353516,72.909375 L43.2353516,70.1679687 L43.9744141,70.1679687 Z" id="Pridaťnaplochu" fill="#000000" fill-rule="nonzero"></path>
                        <g id="iba-ikona">
                            <rect id="Background" fill="#FFFFFF" x="0" y="0" width="48" height="48" rx="9.6"></rect>
                            <path d="M9.6,15.9916534 C9.6,12.4616407 12.466745,9.6 15.9916534,9.6 L32.0083466,9.6 C35.5383593,9.6 38.4,12.466745 38.4,15.9916534 L38.4,32.0083466 C38.4,35.5383593 35.533255,38.4 32.0083466,38.4 L15.9916534,38.4 C12.4616407,38.4 9.6,35.533255 9.6,32.0083466 L9.6,15.9916534 Z M25.28,22.72 L25.28,18.8800082 C25.28,18.1748559 24.7069245,17.6 24,17.6 C23.294514,17.6 22.72,18.1730792 22.72,18.8800082 L22.72,22.72 L18.8800082,22.72 C18.1748559,22.72 17.6,23.2930755 17.6,24 C17.6,24.705486 18.1730792,25.28 18.8800082,25.28 L22.72,25.28 L22.72,29.1199918 C22.72,29.8251441 23.2930755,30.4 24,30.4 C24.705486,30.4 25.28,29.8269208 25.28,29.1199918 L25.28,25.28 L29.1199918,25.28 C29.8251441,25.28 30.4,24.7069245 30.4,24 C30.4,23.294514 29.8269208,22.72 29.1199918,22.72 L25.28,22.72 Z" id="Shape" fill="#686871"></path>
                        </g>
                    </g>
                </g>
            </g>
        </g>
    </g>
</svg>