<?xml version="1.0" encoding="UTF-8"?>
<svg width="28px" height="24px" viewBox="0 0 28 24" version="1.1" xmlns="http://www.w3.org/2000/svg" xmlns:xlink="http://www.w3.org/1999/xlink">
    <!-- Generator: sketchtool 52.6 (67491) - http://www.bohemiancoding.com/sketch -->
    <title>104A75B5-4FF4-4A6B-90F5-38ADB58156CD</title>
    <desc>Created with sketchtool.</desc>
    <g id="Page-1" stroke="none" stroke-width="1" fill="none" fill-rule="evenodd">
        <g id="Detail-produktu-(default)" transform="translate(-236.000000, -443.000000)" fill="#4A4A4A">
            <g id="Group-3-Copy-3" transform="translate(16.000000, 432.000000)">
                <g id="Group-5" transform="translate(79.000000, 10.000000)">
                    <g id="Group-3">
                        <g id="Group-6">
                            <g id="Group-7" transform="translate(141.000000, 1.000000)">
                                <path d="M13.4479153,8.84958621 L14.5533051,8.84958621 L14.5533051,2.22158621 L13.4479153,2.22158621 L13.4479153,8.84958621 Z M19.5992677,8.85375862 C19.2524234,6.63751724 18.9072528,4.432 18.5612453,2.22113793 L17.4411407,2.22113793 C17.7882989,4.43913793 18.1337833,6.64641379 18.4792329,8.85375862 L19.5992677,8.85375862 Z M9.60759153,8.85224138 C9.95328518,6.64289655 10.2985953,4.43603448 10.6450909,2.22162069 L9.52509091,2.22162069 C9.17876961,4.4347931 8.83377335,6.63965517 8.48759153,8.85224138 L9.60759153,8.85224138 Z M5.68424408,2.2187931 C5.12612702,4.42658621 4.56800996,6.63431034 4.00787049,8.85010345 L5.12787049,8.85010345 C5.68696389,6.63851724 6.24438356,4.43341379 6.80424408,2.2187931 L5.68424408,2.2187931 Z M21.2819178,2.21775862 C21.8434869,4.43903448 22.4016737,6.64665517 22.9587098,8.84996552 L24.078675,8.84996552 C23.5177684,6.63131034 22.9595467,4.42331034 22.4019178,2.21775862 L21.2819178,2.21775862 Z M-2.27373675e-13,9.21903448 C0.934042341,6.75627586 1.86438854,4.30327586 2.79518804,1.84906897 L25.2026849,1.84906897 C26.1319502,4.29906897 27.0633076,6.75458621 27.9980473,9.21903448 L-2.27373675e-13,9.21903448 Z M14.9278112,13.8478966 L22.3976045,13.8478966 L22.3976045,22.144931 L24.2626555,22.144931 L24.2626555,12.9300345 L26.1340877,12.9300345 L26.1340877,22.1498621 L27.9956518,22.1498621 L27.9956518,23.9945517 L20.5385509,23.9945517 L20.5385509,15.7008966 L16.8019283,15.7008966 L16.8019283,23.9968966 L0.00450859278,23.9968966 L0.00450859278,22.1550345 L1.85906401,22.1550345 L1.85906401,12.9313793 L3.72728817,12.9313793 L3.72728817,22.1428621 L14.9278112,22.1428621 L14.9278112,13.8478966 Z M14.2368772,10.527431 L13.8659382,10.527431 C13.8337888,10.6916379 13.8137738,10.8549138 13.7691412,11.0113621 C13.5649121,11.7277414 13.1406929,12.2639138 12.4223168,12.528431 C11.687343,12.7990172 10.8749245,12.5790172 10.3358461,11.9899483 C9.97428692,11.5948793 9.78097186,11.1277069 9.72057833,10.6024655 C9.71859078,10.5853621 9.71656837,10.5682586 9.71374396,10.5512586 C9.71283736,10.5458793 9.70924583,10.5409138 9.7033878,10.5281897 L9.32910137,10.5281897 C9.31414247,10.6277414 9.30371656,10.7267414 9.2839457,10.8238448 C9.13815741,11.5388448 8.7690665,12.099569 8.10428443,12.4400517 C7.35372403,12.8245 6.46033923,12.6588103 5.84562939,12.0293621 C5.46056837,11.6350517 5.25358456,11.1573621 5.19559701,10.6143621 C5.19291208,10.5891552 5.18900672,10.5640517 5.18450859,10.5300862 L4.80310884,10.5300862 C4.78271034,10.6499138 4.76893699,10.7750517 4.73950735,10.8965 C4.55163188,11.6720172 4.12092702,12.254569 3.34498182,12.5332586 C2.59986102,12.8008448 1.96754222,12.5871897 1.51159203,11.9377069 C1.24065803,11.5517414 1.08514122,11.1182241 0.99838655,10.6596034 C0.96763188,10.4970862 0.95023213,10.3320517 0.925300623,10.1578448 L27.0687577,10.1578448 C27.0536593,10.3020517 27.0458137,10.4390172 27.0239507,10.5737069 C26.9546306,11.0009138 26.8404687,11.4148448 26.6276618,11.7968103 C26.4545709,12.1074655 26.2311288,12.371431 25.8999059,12.5263966 C25.5706356,12.6805 25.2268249,12.6742586 24.887059,12.5758448 C24.1064413,12.3497069 23.642262,11.8118793 23.4015248,11.0640172 C23.3743616,10.9796034 23.3576941,10.891569 23.3410964,10.8042931 C23.3245335,10.7172586 23.3141425,10.6290517 23.2994974,10.5310172 L22.9241998,10.5310172 C22.8922247,10.6940862 22.8723841,10.8601552 22.8263567,11.0188103 C22.6198959,11.7304655 22.1972807,12.2646379 21.4820428,12.5281207 C20.7472782,12.7987759 19.9379283,12.5810517 19.3952583,11.990569 C19.032932,11.5963276 18.8395821,11.1288793 18.7795024,10.6034655 C18.7769569,10.5809828 18.7725285,10.5587069 18.7677863,10.5287759 L18.3918262,10.5287759 C18.3652209,10.6765 18.3489719,10.8193276 18.3130565,10.9571552 C18.1287029,11.6642241 17.7312633,12.2136724 17.0364588,12.4937069 C16.258003,12.807431 15.5518311,12.6371897 14.9492558,12.0720172 C14.5307203,11.6794655 14.3154725,11.1808103 14.2543816,10.6157759 C14.2525684,10.5986379 14.2512782,10.5813966 14.248663,10.5643966 C14.2473729,10.5560517 14.2435721,10.5480517 14.2368772,10.527431 Z M7.47136239,18.4550345 L10.2542765,18.4550345 L10.2542765,15.7 L7.47136239,15.7 L7.47136239,18.4550345 Z M5.60561395,20.2964828 L5.60561395,13.8475517 L12.126929,13.8475517 L12.126929,20.2964828 L5.60561395,20.2964828 Z M2.80414944,0.913896552 L2.80414944,2.84217094e-13 L25.1915268,2.84217094e-13 L25.1915268,0.913896552 L2.80414944,0.913896552 Z" id="Combined-Shape"></path>
                            </g>
                        </g>
                    </g>
                </g>
            </g>
        </g>
    </g>
</svg>