<?xml version="1.0" encoding="UTF-8"?>
<svg width="16px" height="16px" viewBox="0 0 16 16" version="1.1" xmlns="http://www.w3.org/2000/svg" xmlns:xlink="http://www.w3.org/1999/xlink">
    <!-- Generator: sketchtool 52.6 (67491) - http://www.bohemiancoding.com/sketch -->
    <title>B329B5B3-A7DF-456C-958A-C2AAE9FC1364</title>
    <desc>Created with sketchtool.</desc>
    <g id="Page-1" stroke="none" stroke-width="1" fill="none" fill-rule="evenodd">
        <g id="Detail-produktu-(zlava)" transform="translate(-242.000000, -492.000000)" fill="#4A4A4A">
            <g id="Group-3-Copy-3" transform="translate(16.000000, 476.000000)">
                <g id="Group-3" transform="translate(86.000000, 16.000000)">
                    <path d="M155,14 C156,14 156,14.4475 156,15 L156,16 L150,16 L150,9 L146,9 L146,16 L140,16 L140,15 C140,14.4475 140,14 141,14 L141,7 L155,7 L155,14 Z M154.111111,0 C154.663611,0 155.111111,0.4475 155.111111,1 L156,4 C156,5.1055 155.1045,6 154,6 C152.8955,6 152,5.1055 152,4 C152,5.1055 151.1035,6 150,6 C148.8945,6 148,5.1055 148,4 C148,5.1055 147.1035,6 146,6 C144.8945,6 144,5.1055 144,4 C144,5.1055 143.1045,6 142,6 C140.8955,6 140,5.1055 140,4 L140.888889,1 C140.888889,0.4475 141.335889,0 141.888389,0 L154.111111,0 Z" id="eshop-icon"></path>
                </g>
            </g>
        </g>
    </g>
</svg>