<svg width="17" height="22" viewBox="0 0 17 22" fill="none" xmlns="http://www.w3.org/2000/svg">
<path d="M11.9353 0C13.5065 0 13.9664 1.93155 14 2.89732H1.76259V19.1027H12.1367V13.8482C12.187 13.5699 12.4489 13.0134 13.0935 13.0134C13.7381 13.0134 13.9664 13.5699 14 13.8482V19.7902C14 21.0866 12.1199 21.8036 11.1799 22H2.31655C0.745324 22 0.117506 20.0685 0 19.1027V2.40625C0 0.75625 1.54436 0.114583 2.31655 0H11.9353Z" fill="black"/>
<path fill-rule="evenodd" clip-rule="evenodd" d="M16.7551 3.24355C17.0816 3.56828 17.0816 4.09477 16.7551 4.4195L10.8053 10.337H13.2623C13.724 10.337 14.0984 10.7092 14.0984 11.1685C14.0984 11.6277 13.724 12 13.2623 12H8.83607C8.37432 12 8 11.6277 8 11.1685V11.1198C8 11.1196 8 11.1195 8 11.1194V6.81522C8 6.35598 8.37432 5.9837 8.83607 5.9837C9.29781 5.9837 9.67213 6.35598 9.67213 6.81522V9.11209L15.5727 3.24355C15.8993 2.91882 16.4286 2.91882 16.7551 3.24355Z" fill="black"/>
<circle cx="7" cy="14" r="1" fill="black"/>
<circle cx="4" cy="17" r="1" fill="black"/>
<circle cx="10" cy="17" r="1" fill="black"/>
<circle cx="7" cy="17" r="1" fill="black"/>
<rect x="5" y="20" width="4" height="1" fill="#F2C94C"/>
</svg>
