<?xml version="1.0" encoding="UTF-8"?>
<svg width="35px" height="19px" viewBox="0 0 35 19" version="1.1" xmlns="http://www.w3.org/2000/svg" xmlns:xlink="http://www.w3.org/1999/xlink">
    <!-- Generator: sketchtool 52.5 (67469) - http://www.bohemiancoding.com/sketch -->
    <title>57C3CB75-04B4-4AD8-8945-32B48C51E282</title>
    <desc>Created with sketchtool.</desc>
    <g id="Page-1" stroke="none" stroke-width="1" fill="none" fill-rule="evenodd">
        <g id="Auto-Moto-Covers" transform="translate(-313.000000, -42.000000)" fill="#FFFFFF">
            <g id="go-to-venue" transform="translate(313.000000, 42.000000)">
                <path d="M1.22391999,2.37778299 L20.78372,2.37778299 L20.78372,0 L1.22391999,0 L1.22391999,2.37778299 Z M22,11.8740723 L22,9.49628935 L20.78372,3.55925318 L1.22391999,3.55925318 L0,9.49628935 L0,11.8740723 L1.22391999,11.8740723 L1.22391999,19 L13.44784,19 L13.44784,11.8740723 L18.33588,11.8740723 L18.33588,19 L20.78372,19 L20.78372,11.8740723 L22,11.8740723 Z M3.66412002,16.622217 L11,16.622217 L11,11.8740723 L3.66412002,11.8740723 L3.66412002,16.622217 Z" id="Fill-1"></path>
                <polygon id="keyboard_arrow_right---material" points="30 13.072 33.1067961 10 30 6.944 30.9546926 6 35 10 30.9546926 14"></polygon>
            </g>
        </g>
    </g>
</svg>