<?xml version="1.0" encoding="UTF-8"?>
<svg width="26px" height="26px" viewBox="0 0 26 26" version="1.1" xmlns="http://www.w3.org/2000/svg" xmlns:xlink="http://www.w3.org/1999/xlink">
    <!-- Generator: sketchtool 53 (72520) - https://sketchapp.com -->
    <title>6F119D55-D4DD-4D98-B272-8D3DDAA24192</title>
    <desc>Created with sketchtool.</desc>
    <g id="Pridavanie-na-plochu---Android-" stroke="none" stroke-width="1" fill="none" fill-rule="evenodd">
        <g id="Shortcut-tutorial---Android-(other)---Final" transform="translate(-166.000000, -484.000000)" fill-rule="nonzero">
            <g id="frame-icon" transform="translate(166.000000, 484.000000)">
                <g id="Group-10">
                    <rect id="Rectangle" fill="#FFD300" x="0" y="0" width="26" height="26" rx="2"></rect>
                    <path d="M13,16.136 C13.4760024,16.136 13.8889983,16.3109983 14.239,16.661 C14.5890018,17.0110018 14.764,17.4239976 14.764,17.9 C14.764,18.3760024 14.5890018,18.7889983 14.239,19.139 C13.8889983,19.4890018 13.4760024,19.664 13,19.664 C12.5239976,19.664 12.1110018,19.4890018 11.761,19.139 C11.4109983,18.7889983 11.236,18.3760024 11.236,17.9 C11.236,17.4239976 11.4109983,17.0110018 11.761,16.661 C12.1110018,16.3109983 12.5239976,16.136 13,16.136 Z M13,10.886 C13.4760024,10.886 13.8889983,11.0609983 14.239,11.411 C14.5890018,11.7610018 14.764,12.1739976 14.764,12.65 C14.764,13.1260024 14.5890018,13.5389983 14.239,13.889 C13.8889983,14.2390018 13.4760024,14.414 13,14.414 C12.5239976,14.414 12.1110018,14.2390018 11.761,13.889 C11.4109983,13.5389983 11.236,13.1260024 11.236,12.65 C11.236,12.1739976 11.4109983,11.7610018 11.761,11.411 C12.1110018,11.0609983 12.5239976,10.886 13,10.886 Z M13,9.164 C12.5239976,9.164 12.1110018,8.98900175 11.761,8.639 C11.4109983,8.28899825 11.236,7.87600238 11.236,7.4 C11.236,6.92399762 11.4109983,6.51100175 11.761,6.161 C12.1110018,5.81099825 12.5239976,5.636 13,5.636 C13.4760024,5.636 13.8889983,5.81099825 14.239,6.161 C14.5890018,6.51100175 14.764,6.92399762 14.764,7.4 C14.764,7.87600238 14.5890018,8.28899825 14.239,8.639 C13.8889983,8.98900175 13.4760024,9.164 13,9.164 Z" id="î¨" fill="#300300"></path>
                </g>
            </g>
        </g>
    </g>
</svg>