<?xml version="1.0" encoding="UTF-8"?>
<svg width="17px" height="24px" viewBox="0 0 17 24" version="1.1" xmlns="http://www.w3.org/2000/svg" xmlns:xlink="http://www.w3.org/1999/xlink">
    <!-- Generator: Sketch 46.2 (44496) - http://www.bohemiancoding.com/sketch -->
    <title>icon_ios_export</title>
    <desc>Created with Sketch.</desc>
    <defs></defs>
    <g id="Page-1" stroke="none" stroke-width="1" fill="none" fill-rule="evenodd">
        <g id="AddShortcut-iOS-v1" transform="translate(-179.000000, -415.000000)" fill="#007AFF">
            <g id="icon_ios_export" transform="translate(179.000000, 415.000000)">
                <path d="M6.26315789,7.69811321 L0.894736842,7.69811321 L0.894736842,23.0943396 L16.1052632,23.0943396 L16.1052632,7.69811321 L10.7368421,7.69811321 L10.7368421,6.79245283 L6.26315789,6.79245283 L6.26315789,7.69811321 Z M0,6.79245283 L17,6.79245283 L17,24 L0,24 L0,6.79245283 Z" id="Rectangle-57"></path>
                <path d="M8.94736842,1.80276921 L8.94736842,15.3962264 L8.05263158,15.3962264 L8.05263158,1.80387921 L5.43119571,4.46219045 L4.76825272,3.78396779 L8.5,0.0011095902 L8.5,0 L8.5005473,0.000554795102 L8.5010946,0 L8.50126346,0.0012807666 L12.2328419,3.78396779 L11.5698989,4.46219045 L8.94736842,1.80276921 Z" id="Rectangle-57"></path>
            </g>
        </g>
    </g>
</svg>