<svg width="24" height="24" viewBox="0 0 24 24" fill="none" xmlns="http://www.w3.org/2000/svg">
<path d="M17.0396 23.4001H6.95961C3.45321 23.4001 0.599609 20.5465 0.599609 17.0401V6.9601C0.599609 3.4537 3.45321 0.600098 6.95961 0.600098H17.0396C20.546 0.600098 23.3996 3.4537 23.3996 6.9601V17.0401C23.3996 20.5465 20.546 23.4001 17.0396 23.4001ZM6.95961 2.7193C4.62201 2.7193 2.72121 4.6201 2.72121 6.9577V17.0401C2.72121 19.3777 4.62201 21.2785 6.95961 21.2785H17.0396C19.3772 21.2785 21.278 19.3777 21.278 17.0401V6.9601C21.278 4.6225 19.3772 2.7217 17.0396 2.7217H6.95961V2.7193ZM11.9612 18.0625C8.69481 18.0625 6.03561 15.4057 6.03561 12.1393C6.03561 8.8729 8.69241 6.2137 11.9612 6.2137C15.23 6.2137 17.8868 8.8705 17.8868 12.1393C17.8868 15.4081 15.2276 18.0625 11.9612 18.0625ZM11.9612 8.3329C9.86361 8.3329 8.15721 10.0393 8.15721 12.1369C8.15721 14.2345 9.86361 15.9409 11.9612 15.9409C14.0588 15.9409 15.7676 14.2345 15.7676 12.1369C15.7676 10.0393 14.0588 8.3329 11.9612 8.3329ZM17.9732 4.7641C17.2724 4.7641 16.7036 5.3329 16.7036 6.0337C16.7036 6.7345 17.2724 7.3033 17.9732 7.3033C18.674 7.3033 19.2428 6.7345 19.2428 6.0337C19.2428 5.3329 18.674 4.7641 17.9732 4.7641Z" fill="url(#paint0_linear)"/>
<defs>
<linearGradient id="paint0_linear" x1="11.9996" y1="23.4001" x2="11.9996" y2="0.600098" gradientUnits="userSpaceOnUse">
<stop stop-color="#E09446"/>
<stop offset="0.3883" stop-color="#C74250"/>
<stop offset="0.6508" stop-color="#B8137A"/>
<stop offset="1" stop-color="#6B31BE"/>
</linearGradient>
</defs>
</svg>
