<svg width="24" height="24" viewBox="0 0 24 24" fill="none" xmlns="http://www.w3.org/2000/svg">
<path d="M17.0396 23.4H6.95961C3.45321 23.4 0.599609 20.5464 0.599609 17.04V6.95998C0.599609 3.45358 3.45321 0.599976 6.95961 0.599976H17.0396C20.546 0.599976 23.3996 3.45358 23.3996 6.95998V17.04C23.3996 20.5464 20.546 23.4 17.0396 23.4ZM6.95961 2.71918C4.62201 2.71918 2.72121 4.61998 2.72121 6.95758V17.04C2.72121 19.3776 4.62201 21.2784 6.95961 21.2784H17.0396C19.3772 21.2784 21.278 19.3776 21.278 17.04V6.95998C21.278 4.62238 19.3772 2.72158 17.0396 2.72158H6.95961V2.71918ZM11.9612 18.0624C8.69481 18.0624 6.03561 15.4056 6.03561 12.1392C6.03561 8.87278 8.69241 6.21358 11.9612 6.21358C15.23 6.21358 17.8868 8.87038 17.8868 12.1392C17.8868 15.408 15.2276 18.0624 11.9612 18.0624ZM11.9612 8.33278C9.86361 8.33278 8.15721 10.0392 8.15721 12.1368C8.15721 14.2344 9.86361 15.9408 11.9612 15.9408C14.0588 15.9408 15.7676 14.2344 15.7676 12.1368C15.7676 10.0392 14.0588 8.33278 11.9612 8.33278ZM17.9732 4.76398C17.2724 4.76398 16.7036 5.33278 16.7036 6.03358C16.7036 6.73438 17.2724 7.30318 17.9732 7.30318C18.674 7.30318 19.2428 6.73438 19.2428 6.03358C19.2428 5.33278 18.674 4.76398 17.9732 4.76398Z" fill="#4A4A4A"/>
</svg>
