<?xml version="1.0" encoding="UTF-8"?>
<svg width="5px" height="20px" viewBox="0 0 5 20" version="1.1" xmlns="http://www.w3.org/2000/svg" xmlns:xlink="http://www.w3.org/1999/xlink">
    <!-- Generator: Sketch 47 (45396) - http://www.bohemiancoding.com/sketch -->
    <title>more_vert - material</title>
    <desc>Created with Sketch.</desc>
    <defs></defs>
    <g id="Page-1" stroke="none" stroke-width="1" fill="none" fill-rule="evenodd">
        <g id="AddShortcut-Android-v1" transform="translate(-184.000000, -420.000000)" fill="#4A4A4A">
            <g id="Group-3" transform="translate(32.000000, 120.000000)">
                <g id="Group-4" transform="translate(37.000000, 297.000000)">
                    <path d="M117.5,17.9700599 C118.174607,17.9700599 118.759918,18.2195584 119.255952,18.7185629 C119.751987,19.2175674 120,19.8063838 120,20.4850299 C120,21.163676 119.751987,21.7524925 119.255952,22.251497 C118.759918,22.7505015 118.174607,23 117.5,23 C116.825393,23 116.240082,22.7505015 115.744048,22.251497 C115.248013,21.7524925 115,21.163676 115,20.4850299 C115,19.8063838 115.248013,19.2175674 115.744048,18.7185629 C116.240082,18.2195584 116.825393,17.9700599 117.5,17.9700599 Z M117.5,10.4850299 C118.174607,10.4850299 118.759918,10.7345284 119.255952,11.2335329 C119.751987,11.7325374 120,12.3213539 120,13 C120,13.6786461 119.751987,14.2674626 119.255952,14.7664671 C118.759918,15.2654716 118.174607,15.5149701 117.5,15.5149701 C116.825393,15.5149701 116.240082,15.2654716 115.744048,14.7664671 C115.248013,14.2674626 115,13.6786461 115,13 C115,12.3213539 115.248013,11.7325374 115.744048,11.2335329 C116.240082,10.7345284 116.825393,10.4850299 117.5,10.4850299 Z M117.5,8.02994012 C116.825393,8.02994012 116.240082,7.78044162 115.744048,7.28143713 C115.248013,6.78243263 115,6.19361617 115,5.51497006 C115,4.83632395 115.248013,4.24750749 115.744048,3.74850299 C116.240082,3.2494985 116.825393,3 117.5,3 C118.174607,3 118.759918,3.2494985 119.255952,3.74850299 C119.751987,4.24750749 120,4.83632395 120,5.51497006 C120,6.19361617 119.751987,6.78243263 119.255952,7.28143713 C118.759918,7.78044162 118.174607,8.02994012 117.5,8.02994012 Z" id="more_vert---material"></path>
                </g>
            </g>
        </g>
    </g>
</svg>