<svg width="20" height="24" viewBox="0 0 20 24" fill="none" xmlns="http://www.w3.org/2000/svg">
<path fill-rule="evenodd" clip-rule="evenodd" d="M9.99267 20.5488C7.11027 20.5488 4.22787 20.556 1.34547 20.5368C1.08867 20.5344 0.731072 20.4384 0.606272 20.256C0.507872 20.112 0.642273 19.7448 0.764673 19.5264C1.26867 18.624 1.81587 17.748 2.33187 16.8528C3.08067 15.5568 3.35907 14.1384 3.37587 12.66C3.38307 11.8968 3.36627 11.1336 3.38787 10.3728C3.45987 7.64882 5.14947 5.29202 7.71507 4.36082C8.03667 4.24322 8.10867 4.08242 8.10387 3.77282C8.09667 3.23282 8.08947 2.68322 8.17107 2.15282C8.31507 1.22642 9.11907 0.58802 10.0335 0.60002C10.9383 0.61202 11.7159 1.23602 11.8527 2.14082C11.9391 2.70482 11.9247 3.28802 11.9223 3.86162C11.9223 4.12562 12.0087 4.24322 12.2535 4.33442C15.0519 5.40722 16.6023 7.66802 16.6527 10.6632C16.6719 11.8968 16.7031 13.1352 16.8231 14.3616C16.9287 15.456 17.4159 16.4376 17.9823 17.3736C18.4143 18.084 18.8559 18.7872 19.2519 19.5168C19.3767 19.7472 19.4847 20.0928 19.3935 20.2968C19.3239 20.4528 18.9351 20.5344 18.6879 20.5344C15.7911 20.5536 12.8895 20.5488 9.99267 20.5488Z" fill="#4A4A4A"/>
<path fill-rule="evenodd" clip-rule="evenodd" d="M12.94 21.5256C12.472 22.6464 11.2792 23.4 10.012 23.4C8.74238 23.3976 7.54958 22.6464 7.08398 21.5256C9.03278 21.5256 10.9648 21.5256 12.94 21.5256Z" fill="#4A4A4A"/>
</svg>
