<?xml version="1.0" encoding="UTF-8"?>
<svg width="83px" height="274px" viewBox="0 0 83 274" version="1.1" xmlns="http://www.w3.org/2000/svg" xmlns:xlink="http://www.w3.org/1999/xlink">
    <!-- Generator: sketchtool 55.1 (78136) - https://sketchapp.com -->
    <title>DD7E3953-7C40-4776-8DD8-A17880AAE2C8</title>
    <desc>Created with sketchtool.</desc>
    <defs>
        <path d="M249.747434,344.296842 C265.249145,336.52425 280.617697,322.160377 295.853092,301.205221 C337.817315,243.486545 320.188482,159.850578 289,82.2968416" id="path-1"></path>
    </defs>
    <g id="Pridavanie-na-plochu---Android-" stroke="none" stroke-width="1" fill="none" fill-rule="evenodd">
        <g id="Another-browser" transform="translate(-246.000000, -81.000000)" fill-rule="nonzero">
            <path id="Path-2" d="M296.870932,98.4904839 C297.348398,99.7783424 297.819483,101.062293 298.284172,102.342398 C298.566849,103.121105 298.164738,103.981527 297.38603,104.264205 C296.607323,104.546882 295.746901,104.14477 295.464223,103.366063 C295.00703,102.106606 294.543594,100.843353 294.07393,99.5762478 L287.694136,102.05281 C287.110616,102.279326 286.453952,101.989917 286.227436,101.406396 C286.163763,101.242371 286.139154,101.065774 286.155558,100.89059 L287.899699,82.263996 C287.958055,81.6407787 288.51058,81.1828684 289.133797,81.2412247 C289.377957,81.2640871 289.608115,81.365524 289.789725,81.5303097 L303.644516,94.1015789 C304.108076,94.5221943 304.142889,95.2389601 303.722274,95.7025201 C303.604041,95.832825 303.457093,95.9338126 303.293067,95.9974853 L296.870932,98.4904839 Z M250.419758,345.63773 C249.679206,346.009044 248.777861,345.709718 248.406546,344.969166 C248.035232,344.228614 248.334558,343.327268 249.07511,342.955954 C251.076401,341.952502 253.076734,340.836319 255.076094,339.607267 C255.781839,339.173429 256.705653,339.393853 257.139491,340.099599 C257.573329,340.805344 257.352905,341.729158 256.647159,342.162996 C254.575004,343.436798 252.499209,344.595088 250.419758,345.63773 Z M263.38854,337.602103 C262.722165,338.094279 261.782975,337.953062 261.2908,337.286688 C260.798624,336.620313 260.939841,335.681123 261.606215,335.188948 C263.412892,333.85456 265.218642,332.427765 267.023413,330.908511 C267.657182,330.375005 268.603445,330.456284 269.136951,331.090052 C269.670457,331.723821 269.589178,332.670084 268.955409,333.20359 C267.102582,334.763299 265.246976,336.229487 263.38854,337.602103 Z M274.983855,327.789613 C274.384596,328.361609 273.435106,328.339508 272.86311,327.740249 C272.291113,327.14099 272.313214,326.191499 272.912474,325.619503 C274.545461,324.060808 276.17751,322.426271 277.808581,320.715877 C278.3803,320.116353 279.32978,320.093814 279.929304,320.665533 C280.528827,321.237253 280.551367,322.186732 279.979647,322.786256 C278.316492,324.530294 276.651241,326.198085 274.983855,327.789613 Z M285.39821,316.825934 C284.855006,317.451411 283.907603,317.518106 283.282127,316.974902 C282.65665,316.431698 282.589955,315.484296 283.133159,314.858819 C284.620343,313.146389 286.106621,311.370779 287.59197,309.531987 C288.112538,308.887549 289.056962,308.787132 289.701401,309.3077 C290.345839,309.828267 290.446256,310.772691 289.925688,311.41713 C288.418163,313.283374 286.909011,315.08631 285.39821,316.825934 Z M294.880379,305.04774 C294.383292,305.710458 293.443084,305.844729 292.780365,305.347643 C292.117647,304.850556 291.983376,303.910347 292.480463,303.247629 C293.199506,302.288996 293.918317,301.315526 294.636875,300.327245 C295.287508,299.432348 295.922263,298.533269 296.544121,297.625909 C297.012451,296.942565 297.946066,296.768261 298.62941,297.236591 C299.312754,297.70492 299.487058,298.638536 299.018729,299.32188 C298.381136,300.252197 297.730333,301.174007 297.063326,302.091427 C296.336042,303.091709 295.608394,304.077147 294.880379,305.04774 Z M303.374634,292.487573 C302.952938,293.200639 302.033031,293.436841 301.319965,293.015145 C300.606898,292.593448 300.370696,291.673541 300.792393,290.960475 C301.965481,288.976845 303.080613,286.959268 304.138264,284.907934 C304.517904,284.171616 305.422567,283.88247 306.158885,284.26211 C306.895204,284.64175 307.184349,285.546413 306.804709,286.282732 C305.720529,288.38552 304.577324,290.453887 303.374634,292.487573 Z M310.280359,278.963786 C309.949427,279.723244 309.065493,280.070633 308.306035,279.739702 C307.546577,279.408771 307.199188,278.524836 307.530119,277.765378 C308.447575,275.659898 309.309214,273.521727 310.1155,271.351048 C310.403958,270.574463 311.267345,270.178758 312.04393,270.467216 C312.820514,270.755674 313.216219,271.619061 312.927762,272.395646 C312.1023,274.617951 311.219992,276.807413 310.280359,278.963786 Z M315.521368,264.695807 C315.280808,265.488539 314.443161,265.936162 313.65043,265.695603 C312.857699,265.455044 312.410075,264.617396 312.650634,263.824665 C313.316163,261.631503 313.929268,259.407683 314.490391,257.153377 C314.690491,256.349479 315.504392,255.860004 316.308289,256.060104 C317.112187,256.260203 317.601662,257.074104 317.401563,257.878002 C316.828265,260.181218 316.201691,262.453891 315.521368,264.695807 Z M319.131716,250.005154 C318.97587,250.81879 318.18995,251.352035 317.376314,251.196189 C316.562678,251.040344 316.029433,250.254424 316.185279,249.440788 C316.6164,247.189994 316.999113,244.910977 317.333832,242.603889 C317.452777,241.784046 318.213816,241.215855 319.033659,241.3348 C319.853503,241.453746 320.421693,242.214784 320.302748,243.034628 C319.961584,245.386141 319.57139,247.709708 319.131716,250.005154 Z M321.269302,234.985471 C321.190292,235.810122 320.457731,236.414584 319.63308,236.335574 C318.808429,236.256565 318.203967,235.524003 318.282977,234.699352 C318.501639,232.417099 318.676195,230.109234 318.807029,227.775889 C318.853407,226.948761 319.561523,226.315838 320.388651,226.362216 C321.215779,226.408594 321.848702,227.11671 321.802324,227.943838 C321.669294,230.31636 321.491758,232.663615 321.269302,234.985471 Z M322.082593,219.862289 C322.071114,220.690636 321.3903,221.35284 320.561952,221.341361 C319.733605,221.329882 319.071402,220.649068 319.082881,219.820721 C319.114647,217.528336 319.106583,215.212921 319.059036,212.874579 C319.042194,212.046324 319.699976,211.361237 320.528232,211.344395 C321.356487,211.327554 322.041574,211.985335 322.058416,212.813591 C322.106653,215.185872 322.114836,217.53547 322.082593,219.862289 Z M321.748595,204.801189 C321.795375,205.628294 321.162796,206.336718 320.335691,206.383498 C319.508586,206.430278 318.800162,205.797699 318.753382,204.970594 C318.623755,202.678692 318.458164,200.366078 318.256926,198.032823 C318.18574,197.20746 318.797121,196.480663 319.622484,196.409477 C320.447847,196.338291 321.174644,196.949673 321.24583,197.775036 C321.449588,200.137509 321.617288,202.47958 321.748595,204.801189 Z M320.428184,189.779249 C320.525195,190.601976 319.936885,191.347571 319.114157,191.444581 C318.29143,191.541592 317.545835,190.953282 317.448825,190.130554 C317.179795,187.848958 316.878336,185.54874 316.544735,183.229934 C316.426766,182.40995 316.995862,181.649588 317.815846,181.531618 C318.635831,181.413649 319.396193,181.982745 319.514162,182.80273 C319.851371,185.146612 320.156144,187.472126 320.428184,189.779249 Z M318.256054,174.838217 C318.396296,175.654687 317.848105,176.430256 317.031635,176.570498 C316.215165,176.710741 315.439596,176.16255 315.299354,175.346079 C314.909811,173.078218 314.490937,170.793531 314.042988,168.492019 C313.884719,167.678851 314.415619,166.891345 315.228788,166.733076 C316.041956,166.574807 316.829461,167.105708 316.98773,167.918876 C317.439876,170.241951 317.862739,172.548394 318.256054,174.838217 Z M315.356065,160.038812 C315.533484,160.848018 315.021318,161.647834 314.212112,161.825253 C313.402906,162.002671 312.603089,161.490505 312.425671,160.681299 C311.932519,158.432026 311.412809,156.167497 310.866766,153.887671 C310.673806,153.08203 311.170483,152.272503 311.976124,152.079544 C312.781765,151.886584 313.591292,152.38326 313.784251,153.188902 C314.334747,155.487316 314.858761,157.770602 315.356065,160.038812 Z M311.828094,145.381847 C312.037613,146.183341 311.557722,147.00293 310.756228,147.212449 C309.954733,147.421968 309.135145,146.942078 308.925626,146.140583 C308.342538,143.910042 307.735298,141.66556 307.104099,139.407049 C306.881118,138.609195 307.347145,137.781645 308.144999,137.558664 C308.942853,137.335683 309.770403,137.80171 309.993384,138.599564 C310.629083,140.874177 311.240719,143.134905 311.828094,145.381847 Z M307.758517,130.875627 C307.995862,131.669326 307.544847,132.505153 306.751148,132.742498 C305.957448,132.979842 305.121622,132.528828 304.884277,131.735128 C304.223168,129.524327 303.540025,127.300686 302.835009,125.064062 C302.585957,124.273958 303.024566,123.431555 303.81467,123.182503 C304.604774,122.933451 305.447177,123.37206 305.696229,124.162164 C306.40566,126.412793 307.093143,128.650563 307.758517,130.875627 Z M303.22561,116.537755 C303.487146,117.323815 303.061934,118.173059 302.275874,118.434594 C301.489814,118.69613 300.64057,118.270918 300.379034,117.484858 C299.650026,115.293781 298.900842,113.090756 298.131601,110.875572 C297.859842,110.092987 298.273948,109.238273 299.056533,108.966514 C299.839117,108.694755 300.693832,109.108861 300.96559,109.891446 C301.739078,112.118861 302.492459,114.334224 303.22561,116.537755 Z"></path>
        </g>
    </g>
</svg>