<svg width="169" height="130" viewBox="0 0 169 130" fill="none" xmlns="http://www.w3.org/2000/svg">
<path d="M0 0V2.21102H2V0H0ZM0 6.63306V8.84408H2V6.63306H0ZM0 8.84408C0 9.89595 0.0203293 10.9431 0.0606204 11.9852L2.05913 11.908C2.01983 10.8916 2 9.87018 2 8.84408H0ZM0.546772 18.2409C0.791794 20.3323 1.11759 22.3992 1.52097 24.4382L3.48295 24.0501C3.08972 22.0623 2.77208 20.0473 2.53319 18.0082L0.546772 18.2409ZM2.98156 30.543C3.55092 32.5655 4.19789 34.5555 4.91905 36.5097L6.79536 35.8172C6.09238 33.9124 5.46173 31.9725 4.90673 30.001L2.98156 30.543ZM7.32342 42.3079C8.20295 44.2125 9.15522 46.0766 10.1766 47.8966L11.9207 46.9178C10.9249 45.1434 9.99658 43.3261 9.13917 41.4694L7.32342 42.3079ZM13.4601 53.2435C14.6255 54.9844 15.8576 56.6769 17.1526 58.3174L18.7224 57.0781C17.4597 55.4785 16.2584 53.8283 15.122 52.1309L13.4601 53.2435ZM21.2297 63.0866C22.6503 64.6227 24.1305 66.1029 25.6666 67.5235L27.0245 66.0551C25.5267 64.6699 24.0833 63.2265 22.698 61.7287L21.2297 63.0866ZM30.4358 71.6006C32.0763 72.8956 33.7688 74.1276 35.5097 75.2931L36.6223 73.6312C34.9249 72.4948 33.2746 71.2935 31.675 70.0308L30.4358 71.6006ZM40.8566 78.5765C42.6766 79.598 44.5407 80.5502 46.4453 81.4297L47.2838 79.614C45.4271 78.7566 43.6098 77.8282 41.8354 76.8324L40.8566 78.5765ZM52.2435 83.8341C54.1977 84.5553 56.1877 85.2022 58.2102 85.7716L58.7522 83.8464C56.7807 83.2914 54.8408 82.6608 52.936 81.9578L52.2435 83.8341ZM64.315 87.2322C66.354 87.6356 68.4209 87.9614 70.5123 88.2064L70.745 86.22C68.7059 85.9811 66.6909 85.6635 64.7031 85.2702L64.315 87.2322ZM76.768 88.6926C77.8101 88.7328 78.8572 88.7532 79.9091 88.7532V86.7532C78.883 86.7532 77.8616 86.7333 76.8452 86.694L76.768 88.6926ZM79.9091 88.7532H83.2685V86.7532H79.9091V88.7532ZM89.9874 88.7532H96.7063V86.7532H89.9874V88.7532ZM103.425 88.7532H110.144V86.7532H103.425V88.7532ZM116.863 88.7532H123.582V86.7532H116.863V88.7532ZM130.301 88.7532H133.66V86.7532H130.301V88.7532ZM133.66 88.7532C134.73 88.7532 135.784 88.8227 136.817 88.9574L137.075 86.9742C135.957 86.8284 134.817 86.7532 133.66 86.7532V88.7532ZM142.907 90.5859C144.871 91.4001 146.704 92.4661 148.367 93.7438L149.585 92.158C147.786 90.775 145.8 89.6206 143.673 88.7385L142.907 90.5859ZM152.828 98.2048C154.105 99.8675 155.171 101.701 155.985 103.664L157.833 102.898C156.951 100.771 155.796 98.7858 154.413 96.9861L152.828 98.2048ZM157.614 109.755C157.749 110.787 157.818 111.841 157.818 112.911H159.818C159.818 111.754 159.743 110.614 159.597 109.496L157.614 109.755Z" fill="#007AFF"/>
<path d="M159.943 128.579C159.555 129.224 158.619 129.224 158.231 128.579L151.416 117.276C151.014 116.609 151.494 115.759 152.273 115.759L165.901 115.759C166.68 115.759 167.16 116.609 166.758 117.276L159.943 128.579Z" fill="#007AFF"/>
</svg>
