<?xml version="1.0" encoding="UTF-8"?>
<svg width="141px" height="419px" viewBox="0 0 141 419" version="1.1" xmlns="http://www.w3.org/2000/svg" xmlns:xlink="http://www.w3.org/1999/xlink">
    <!-- Generator: sketchtool 53 (72520) - https://sketchapp.com -->
    <title>3DF170C3-6C4A-4C16-BD6C-7DF040F92CD5</title>
    <desc>Created with sketchtool.</desc>
    <defs>
        <path d="M0,406 C56,404.984962 147.660595,374.753763 117.570948,259 C97.3957787,181.386868 46,121 129,0" id="path-1"></path>
    </defs>
    <g id="Pridavanie-na-plochu---Android-" stroke="none" stroke-width="1" fill="none" fill-rule="evenodd">
        <g id="Shortcut-tutorial---Android-(other)---Final" transform="translate(-201.000000, -89.000000)" fill-rule="nonzero">
            <g id="sipka-android" transform="translate(205.000000, 91.000000)">
                <path id="Path-5" d="M120.438907,15.8454049 C120.373076,15.9515999 120.307343,16.0577618 120.241708,16.1638908 C119.805967,16.8684623 118.88156,17.0863921 118.176989,16.6506508 C117.472418,16.2149094 117.254488,15.2905032 117.690229,14.5859317 C117.770047,14.4568703 117.850007,14.3277617 117.930111,14.1986057 L112.158598,10.4101277 C111.635318,10.0666413 111.489566,9.36398806 111.833053,8.84070775 C111.929605,8.6936157 112.059079,8.57102367 112.21122,8.48264021 L128.387743,-0.914812709 C128.928985,-1.22923706 129.622639,-1.04536531 129.937064,-0.504123675 C130.060246,-0.292079854 130.111332,-0.0458025663 130.082652,0.197742259 L127.8947,18.7774328 C127.821495,19.3990807 127.258205,19.8436811 126.636557,19.7704756 C126.461814,19.7498978 126.294262,19.688918 126.14717,19.5923653 L120.438907,15.8454049 Z M0.0271840418,407.499754 C-0.801107031,407.514767 -1.48474032,406.855475 -1.49975366,406.027184 C-1.51476699,405.198893 -0.855475114,404.51526 -0.0271840418,404.500246 C2.25218665,404.458931 4.56516681,404.369248 6.90103314,404.230563 C7.72800401,404.181465 8.43819868,404.812055 8.48729733,405.639026 C8.53639598,406.465997 7.90580595,407.176191 7.07883508,407.22529 C4.70190287,407.366412 2.34776961,407.457691 0.0271840418,407.499754 Z M15.1223804,406.564132 C14.2984753,406.650572 13.560495,406.052738 13.4740553,405.228833 C13.3876156,404.404927 13.9854495,403.666947 14.8093547,403.580507 C17.1036129,403.339806 19.4032142,403.053267 21.7013563,402.720741 C22.5212452,402.602109 23.2820671,403.170589 23.4006996,403.990478 C23.5193321,404.810367 22.9508514,405.571189 22.1309625,405.689822 C19.7939101,406.027978 17.4554427,406.31936 15.1223804,406.564132 Z M30.0927303,404.353636 C29.2790602,404.509304 28.4932563,403.975888 28.3375881,403.162218 C28.1819198,402.348548 28.7153356,401.562744 29.5290057,401.407076 C31.8043911,400.971758 34.0669301,400.491456 36.3119062,399.966162 C37.1185458,399.777419 37.925463,400.278323 38.114206,401.084962 C38.302949,401.891602 37.8020448,402.698519 36.9954052,402.887262 C34.7104226,403.421918 32.4079548,403.910696 30.0927303,404.353636 Z M44.8283761,400.853032 C44.0319269,401.080979 43.2014891,400.620118 42.9735415,399.823669 C42.7455938,399.027219 43.2064554,398.196782 44.0029046,397.968834 C46.2384613,397.329007 48.4471834,396.643496 50.6255069,395.912319 C51.4108718,395.648703 52.2612389,396.071664 52.524855,396.857029 C52.788471,397.642394 52.36551,398.492761 51.5801451,398.756377 C49.3587267,399.50202 47.1069443,400.200894 44.8283761,400.853032 Z M59.1644924,395.979803 C58.3947543,396.286062 57.522486,395.910339 57.2162266,395.140601 C56.9099672,394.370863 57.2856909,393.498594 58.0554289,393.192335 C60.2169985,392.332301 62.3395996,391.425018 64.4203712,390.470485 C65.1733492,390.125064 66.0637775,390.455454 66.4091985,391.208432 C66.7546195,391.96141 66.4242293,392.851838 65.6712513,393.197259 C63.5433188,394.173427 61.3734353,395.10092 59.1644924,395.979803 Z M72.9428472,389.581875 C72.2132779,389.974329 71.3036983,389.701043 70.9112442,388.971474 C70.5187901,388.241905 70.792076,387.332325 71.5216452,386.939871 C73.5687207,385.838696 75.5654345,384.688037 77.50938,383.487855 C78.2142836,383.052651 79.1385233,383.271286 79.5737272,383.97619 C80.008931,384.681093 79.7902962,385.605333 79.0853926,386.040537 C77.0902869,387.272305 75.041947,388.452715 72.9428472,389.581875 Z M85.8286579,381.532593 C85.1574928,382.018215 84.2197314,381.867803 83.7341092,381.196638 C83.248487,380.525473 83.3988992,379.587711 84.0700643,379.102089 C85.9479029,377.743377 87.7648463,376.33288 89.5188225,374.870503 C90.1551076,374.340001 91.1009758,374.425755 91.6314781,375.06204 C92.1619803,375.698325 92.0762264,376.644193 91.4399412,377.174696 C89.6328233,378.681379 87.7616637,380.133964 85.8286579,381.532593 Z M97.4499449,371.729265 C96.8599171,372.310779 95.9101947,372.303877 95.3286806,371.71385 C94.7471664,371.123822 94.7540681,370.174099 95.3440959,369.592585 C96.9870596,367.973328 98.5604159,366.300708 100.062379,364.574555 C100.606173,363.949591 101.553638,363.883791 102.178602,364.427585 C102.803565,364.971379 102.869366,365.918844 102.325572,366.543808 C100.773009,368.328113 99.1471484,370.056551 97.4499449,371.729265 Z M107.392817,360.159401 C106.907919,360.831089 105.97032,360.982512 105.298632,360.497613 C104.626944,360.012714 104.475521,359.075115 104.96042,358.403427 C106.301575,356.545642 107.567857,354.63462 108.757747,352.670122 C109.186933,351.961539 110.109278,351.735043 110.817861,352.16423 C111.526445,352.593416 111.752941,353.515761 111.323754,354.224344 C110.091925,356.258084 108.781055,358.236396 107.392817,360.159401 Z M115.22539,347.05366 C114.863415,347.798821 113.965903,348.109455 113.220742,347.74748 C112.475581,347.385504 112.164947,346.487993 112.526923,345.742831 C113.522612,343.69311 114.442451,341.592375 115.285171,339.440361 C115.587244,338.66897 116.457458,338.288513 117.228849,338.590587 C118.000239,338.89266 118.380696,339.762874 118.078623,340.534265 C117.207109,342.759808 116.255584,344.932907 115.22539,347.05366 Z M120.712716,332.82886 C120.478789,333.623573 119.64491,334.078179 118.850197,333.844251 C118.055484,333.610323 117.600877,332.776445 117.834805,331.981732 C118.476114,329.803039 119.044652,327.577488 119.539392,325.304842 C119.715608,324.495373 120.514663,323.98202 121.324131,324.158236 C122.1336,324.334452 122.646953,325.133507 122.470737,325.942976 C121.96074,328.285711 121.374393,330.580973 120.712716,332.82886 Z M123.885683,317.963915 C123.772004,318.784505 123.01463,319.35757 122.194039,319.243891 C121.373449,319.130212 120.800384,318.372838 120.914062,317.552247 C121.225384,315.304975 121.469628,313.016055 121.645996,310.685305 C121.708504,309.85924 122.428836,309.240254 123.254901,309.302763 C124.080967,309.365271 124.699952,310.085603 124.637444,310.911668 C124.456409,313.304093 124.205571,315.654808 123.885683,317.963915 Z M124.980898,302.821488 C124.97233,303.649871 124.293846,304.314462 123.465464,304.305893 C122.637081,304.297324 121.97249,303.618841 121.981059,302.790459 C122.004546,300.51982 121.967644,298.212847 121.869746,295.869406 C121.835169,295.0417 122.478126,294.342682 123.305831,294.308104 C124.133536,294.273527 124.832554,294.916484 124.867132,295.744189 C124.967192,298.139396 125.004927,300.498462 124.980898,302.821488 Z M124.303895,287.646088 C124.383487,288.470683 123.779542,289.203671 122.954947,289.283262 C122.130352,289.362854 121.397364,288.758909 121.317773,287.934314 C121.099247,285.670308 120.826974,283.374828 120.500493,281.047776 C120.385394,280.227383 120.957147,279.469017 121.777539,279.353918 C122.597932,279.238819 123.356298,279.810572 123.471397,280.630964 C123.80384,283.000514 124.081198,285.338858 124.303895,287.646088 Z M122.168575,272.670011 C122.320391,273.484409 121.783261,274.267679 120.968863,274.419495 C120.154466,274.57131 119.371195,274.03418 119.21938,273.219783 C118.801686,270.979101 118.336235,268.711094 117.822678,266.415687 C117.641804,265.607247 118.150546,264.805249 118.958987,264.624374 C119.767427,264.4435 120.569425,264.952243 120.7503,265.760683 C121.27163,268.090833 121.74428,270.393916 122.168575,272.670011 Z M118.841524,257.929261 C119.051975,258.730511 118.573039,259.550657 117.771789,259.761109 C116.970539,259.971561 116.150393,259.492624 115.939941,258.691374 C115.359849,256.482802 114.743732,254.246374 114.089428,251.970063 C113.860571,251.173875 114.320484,250.342911 115.116672,250.114054 C115.912861,249.885197 116.743824,250.34511 116.972681,251.141299 C117.633232,253.439341 118.25546,255.697951 118.841524,257.929261 Z M114.668821,243.456037 C114.915075,244.247017 114.473486,245.087862 113.682506,245.334116 C112.891525,245.58037 112.05068,245.138782 111.804426,244.347801 C111.133038,242.191268 110.426613,239.9852 109.677111,237.700708 C109.418863,236.913562 109.847619,236.066102 110.634765,235.807853 C111.421911,235.549604 112.269371,235.97836 112.52762,236.765506 C113.281719,239.064012 113.992761,241.284498 114.668821,243.456037 Z M109.972025,229.149801 C110.240194,229.933623 109.822175,230.78643 109.038353,231.054599 C108.254531,231.322768 107.401724,230.904749 107.133555,230.120927 C106.427737,228.057918 105.682313,225.906475 104.845219,223.512714 C104.571759,222.730723 104.984004,221.875109 105.765996,221.601649 C106.547987,221.328188 107.4036,221.740433 107.677061,222.522425 C108.516248,224.922173 109.263834,227.079855 109.972025,229.149801 Z M105.023338,214.977795 C105.298941,215.759034 104.889042,216.615774 104.107803,216.891377 C103.326564,217.166981 102.469824,216.757082 102.194221,215.975843 C101.057167,212.752692 100.582165,211.404307 99.9687384,209.655194 C99.9184752,209.511861 99.9184752,209.511861 99.8682292,209.368525 C99.594201,208.586732 100.005826,207.73082 100.787618,207.456792 C101.569411,207.182763 102.425323,207.594388 102.699352,208.376181 C102.74951,208.519268 102.74951,208.519268 102.799689,208.662359 C103.412296,210.409134 103.886906,211.756408 105.023338,214.977795 Z M100.083332,200.834562 C100.351575,201.618358 99.9336371,202.471205 99.1498407,202.739449 C98.3660442,203.007693 97.5131973,202.589754 97.2449536,201.805958 C96.4478781,199.476937 95.7084597,197.280966 95.0072348,195.156413 C94.7475836,194.369728 95.1748286,193.521505 95.9615133,193.261854 C96.748198,193.002203 97.5964208,193.429448 97.856072,194.216133 C98.5536897,196.329757 99.2896482,198.515453 100.083332,200.834562 Z M95.4165458,186.611838 C95.6622855,187.402979 95.2201508,188.243537 94.4290101,188.489276 C93.6378695,188.735016 92.7973119,188.292881 92.5515722,187.501741 C91.8379549,185.204303 91.1658942,182.966675 90.5309,180.769663 C90.3008777,179.973811 90.7595738,179.142175 91.5554263,178.912153 C92.3512788,178.68213 93.1829147,179.140826 93.412937,179.936679 C94.0422827,182.114147 94.7086608,184.332856 95.4165458,186.611838 Z M91.3062466,172.26586 C91.5142844,173.06774 91.03288,173.88644 90.2309998,174.094478 C89.4291196,174.302516 88.6104194,173.821111 88.4023817,173.019231 C87.8033549,170.710287 87.2457796,168.43412 86.728565,166.181254 C86.5431965,165.373832 87.0474703,164.569017 87.8548921,164.383648 C88.662314,164.19828 89.4671296,164.702553 89.6524981,165.509975 C90.1632991,167.734904 90.714179,169.983739 91.3062466,172.26586 Z M88.0126192,157.730497 C88.168338,158.544157 87.6349711,159.329995 86.8213107,159.485713 C86.0076504,159.641432 85.2218133,159.108065 85.0660945,158.294405 C84.6197436,155.962138 84.2181052,153.647316 83.861343,151.344236 C83.7345268,150.525573 84.2953794,149.75911 85.1140424,149.632294 C85.9327055,149.505478 86.6991678,150.066331 86.8259841,150.884994 C87.1772619,153.15267 87.5728496,155.432618 88.0126192,157.730497 Z M85.7809295,143.016852 C85.8717649,143.840284 85.277878,144.581444 84.4544459,144.67228 C83.6310138,144.763115 82.8898535,144.169228 82.7990181,143.345796 C82.5398381,140.996305 82.3288253,138.653916 82.1666763,136.314847 C82.1093855,135.488403 82.7329072,134.771995 83.559351,134.714704 C84.3857947,134.657414 85.1022031,135.280935 85.1594938,136.107379 C85.3188099,138.405581 85.5261751,140.70748 85.7809295,143.016852 Z M84.8016164,128.186267 C84.8188583,129.014515 84.1614082,129.69992 83.3331605,129.717162 C82.5049128,129.734403 81.8195081,129.076953 81.8022662,128.248706 C81.7532616,125.894676 81.7548513,123.540444 81.8079315,121.183366 C81.8265825,120.355149 82.5131048,119.698866 83.341322,119.717517 C84.1695391,119.736168 84.8258221,120.42269 84.8071711,121.250907 C84.7550705,123.564487 84.75351,125.875386 84.8016164,128.186267 Z M85.1841037,113.319766 C85.1241314,114.146019 84.4057034,114.767213 83.5794499,114.707241 C82.7531964,114.647268 82.1320028,113.92884 82.1919751,113.102587 C82.361672,110.764632 82.5826653,108.421408 82.8558714,106.071025 C82.9515229,105.248138 83.6961452,104.658598 84.5190317,104.754249 C85.3419183,104.849901 85.9314588,105.594523 85.8358073,106.41741 C85.5676028,108.724763 85.3506724,111.024908 85.1841037,113.319766 Z M86.9443206,98.5560084 C86.8088945,99.3732913 86.0365714,99.9260455 85.2192885,99.7906194 C84.4020056,99.6551934 83.8492514,98.8828703 83.9846775,98.0655874 C84.3664803,95.7614448 84.7986766,93.4487412 85.2821149,91.1260975 C85.4509269,90.3150525 86.245258,89.7944198 87.056303,89.9632318 C87.867348,90.1320439 88.3879807,90.9263749 88.2191687,91.7374199 C87.744078,94.0199581 87.3194145,96.2923532 86.9443206,98.5560084 Z M90.0130842,84.0021188 C89.807983,84.804755 88.9910503,85.2891529 88.188414,85.0840516 C87.3857778,84.8789504 86.9013799,84.0620177 87.1064812,83.2593814 C87.6830771,81.0029503 88.3079346,78.7360137 88.9817982,76.457551 C89.2167483,75.6631393 90.051211,75.2096061 90.8456227,75.4445563 C91.6400344,75.6795064 92.0935676,76.513969 91.8586174,77.3083807 C91.1953283,79.5510892 90.5804036,81.7819905 90.0130842,84.0021188 Z M94.2675966,69.735135 C94.0007561,70.5194102 93.1486585,70.938874 92.3643833,70.6720336 C91.580108,70.4051931 91.1606442,69.5530955 91.4274847,68.7688202 C92.1761021,66.5685459 92.9701161,64.356786 93.8101617,62.1327746 C94.1028866,61.3577884 94.9684375,60.9668384 95.7434237,61.2595634 C96.5184099,61.5522883 96.9093599,62.4178392 96.6166349,63.1928254 C95.7882795,65.3858875 95.005483,67.5664005 94.2675966,69.735135 Z M99.5535128,55.8206392 C99.2334811,56.5847539 98.3546069,56.9447544 97.5904922,56.6247227 C96.8263775,56.3046911 96.4663771,55.4258169 96.7864087,54.6617022 C97.6827945,52.5214712 98.621392,50.3694249 99.6027351,48.2049802 C99.9448196,47.4504806 100.833777,47.1161521 101.588276,47.4582366 C102.342776,47.8003211 102.677104,48.6892782 102.33502,49.4437778 C101.36562,51.5818797 100.438633,53.7073063 99.5535128,55.8206392 Z M105.727021,42.2632676 C105.361788,43.0068381 104.462926,43.3135419 103.719356,42.9483098 C102.975786,42.5830777 102.669082,41.6842156 103.034314,40.9406452 C104.05631,38.8599787 105.117337,36.7675666 106.217841,34.6629587 C106.601715,33.9288382 107.508028,33.6449069 108.242148,34.0287802 C108.976269,34.4126535 109.2602,35.3189664 108.876327,36.0530869 C107.787462,38.1354354 106.737844,40.2053468 105.727021,42.2632676 Z M112.67351,29.0264386 C112.270005,29.7499542 111.356374,30.0093737 110.632858,29.6058683 C109.909343,29.2023629 109.649923,28.2887318 110.053429,27.5652161 C111.181641,25.5422464 112.345841,23.5078419 113.546403,21.4616499 C113.965633,20.7471305 114.884718,20.507751 115.599237,20.9269808 C116.313757,21.3462105 116.553136,22.2652958 116.133906,22.9798151 C114.944362,25.0072301 113.791023,27.0226552 112.67351,29.0264386 Z"></path>
            </g>
        </g>
    </g>
</svg>