<svg width="24" height="24" viewBox="0 0 24 24" fill="none" xmlns="http://www.w3.org/2000/svg">
<g clip-path="url(#clip0_568_797)">
<path d="M9.55016 0.00852937C7.30472 0.00852937 5.06209 0.00852925 2.81665 0.00292969C5.06209 0.00852925 7.30472 0.00852937 9.55016 0.00852937Z" fill="white"/>
<path d="M16.894 0.0895996C17.1012 0.142796 17.2944 0.22119 17.4736 0.327582C17.2944 0.22119 17.1012 0.142796 16.894 0.0895996Z" fill="white"/>
<path d="M2.40234 0.0280294C2.44994 0.0224297 2.49754 0.0140303 2.54513 0.0112305C2.49754 0.0168301 2.44994 0.0224297 2.40234 0.0280294Z" fill="white"/>
<path d="M1.65759 0.212749C1.70239 0.195951 1.74439 0.176352 1.78918 0.162354C1.74439 0.176352 1.70239 0.195951 1.65759 0.212749Z" fill="white"/>
<path d="M1.89551 0.131726C1.9431 0.117727 1.9879 0.103728 2.0355 0.0925293C1.9879 0.103728 1.9403 0.117727 1.89551 0.131726Z" fill="white"/>
<path d="M0.887573 0.649595C0.957568 0.596398 1.03036 0.543202 1.10316 0.495605C1.03036 0.543202 0.957568 0.593599 0.887573 0.649595Z" fill="white"/>
<path d="M1.42517 0.316478C1.46717 0.29408 1.50916 0.271682 1.55396 0.254883C1.50916 0.271682 1.46717 0.29408 1.42517 0.316478Z" fill="white"/>
<path d="M2.14197 0.0699901C2.18956 0.0615907 2.23716 0.0503916 2.28476 0.0419922C2.23716 0.0503916 2.18956 0.0615907 2.14197 0.0699901Z" fill="white"/>
<path d="M1.1676 0.456407C1.218 0.425609 1.27119 0.392012 1.32439 0.364014C1.27119 0.392012 1.2208 0.425609 1.1676 0.456407Z" fill="white"/>
<path d="M2.8082 0.00292969C2.76061 0.00292969 2.71581 0.00572959 2.66821 0.00852937C2.71861 0.00572959 2.76621 0.00292969 2.8166 0.00292969C2.8138 0.00292969 2.811 0.00292969 2.8082 0.00292969Z" fill="white"/>
<path d="M23.9999 6.69427C24.0055 6.00552 23.7116 5.50716 23.1936 5.10679C22.6756 4.70921 22.0989 4.51603 21.4353 4.51883C20.8642 4.51883 20.2902 4.51883 19.719 4.52163C19.719 5.28037 19.719 6.04192 19.719 6.80066V10.4236C19.719 11.048 19.5063 11.9383 18.4871 12.6242C17.8544 13.0526 17.1264 13.2682 16.3229 13.2682H14.853H13.2263C11.1601 13.2682 9.09103 13.2682 7.02478 13.2738C7.02478 13.5202 7.02478 13.7666 7.02478 14.0129C7.02478 14.5393 7.29636 14.9201 7.71073 15.2C8.1363 15.4884 8.61506 15.6172 9.13023 15.6172C12.112 15.6172 15.091 15.6172 18.0728 15.6228C18.2016 15.6228 18.3444 15.662 18.4535 15.7264C19.761 16.488 21.0629 17.2579 22.3649 18.0278C22.4125 18.0558 22.4628 18.0838 22.558 18.1398C22.3313 17.2719 22.1185 16.4516 21.8973 15.606C21.9897 15.5892 22.0709 15.5724 22.1521 15.5584C22.6672 15.4688 23.1376 15.284 23.5296 14.9313C23.8263 14.6653 23.9943 14.3433 23.9943 13.9289C23.9887 11.5183 23.9803 9.10489 23.9999 6.69427Z" fill="white"/>
<path d="M18.3835 1.23471C18.1343 0.839939 17.832 0.531961 17.4736 0.324776C17.2944 0.221184 17.1012 0.13999 16.894 0.0867936C16.6869 0.0335975 16.4629 0.00559959 16.2249 0.00559959C14.125 0.00559959 12.0224 0.00559959 9.92255 0.00559959C9.79936 0.00559959 9.67616 0.00559959 9.55297 0.00559959C9.55017 0.00559959 9.55017 0.00559959 9.54738 0.00559959C7.30194 0.00559959 5.0593 0.00559959 2.81387 0C2.76347 0 2.71307 0.00279979 2.66548 0.00559959C2.62348 0.00839938 2.58428 0.00839938 2.54229 0.0111992C2.49469 0.013999 2.44709 0.0223983 2.3995 0.0279979C2.3603 0.0335975 2.3211 0.0363974 2.28191 0.041997C2.23431 0.0503963 2.18671 0.0615955 2.13912 0.0699949C2.10272 0.0783943 2.06632 0.0839938 2.02992 0.0923932C1.98233 0.103592 1.93753 0.117591 1.88993 0.13159C1.85634 0.14279 1.81994 0.151189 1.78634 0.162388C1.74154 0.176387 1.69675 0.195986 1.65475 0.212784C1.62115 0.226783 1.58476 0.237983 1.55116 0.251982C1.50636 0.27158 1.46437 0.293979 1.42237 0.313577C1.38877 0.330376 1.35517 0.344375 1.32158 0.361174C1.26838 0.389172 1.21798 0.422769 1.16479 0.453567C1.14239 0.467566 1.11999 0.478765 1.10039 0.492764C1.0276 0.54036 0.954802 0.590757 0.884807 0.646753C0.316449 1.08352 -0.00552775 1.63228 7.18404e-05 2.38823C0.0196704 5.03403 0.011271 7.68264 0.00567143 10.3284C0.00567143 10.782 0.190458 11.1348 0.515234 11.426C0.946403 11.8123 1.46436 12.0167 2.02712 12.1147C2.11672 12.1315 2.20351 12.1483 2.3071 12.1651C2.06352 13.0946 1.82834 13.9962 1.58196 14.9481C1.68835 14.8865 1.74154 14.8557 1.79474 14.8249C3.22544 13.9822 4.65333 13.1366 6.08683 12.2995C6.11762 12.2827 6.14842 12.2659 6.18482 12.2519C6.25202 12.2239 6.32761 12.2043 6.3976 12.1931C6.434 12.1875 6.4704 12.1847 6.504 12.1847C6.67478 12.1847 6.84557 12.1847 7.01636 12.1847C9.08261 12.1819 11.1517 12.1791 13.2207 12.1791C14.2538 12.1791 15.2842 12.1791 16.3173 12.1791C16.8828 12.1791 17.4092 12.0363 17.874 11.7199C17.9888 11.6416 18.0924 11.5576 18.1847 11.468C18.4619 11.1936 18.6271 10.8492 18.6299 10.4152C18.6299 8.44978 18.6299 6.48153 18.6299 4.51607C18.6299 3.70973 18.6299 2.90619 18.6299 2.09985C18.6327 1.78907 18.5487 1.49789 18.3835 1.23471ZM5.90484 6.03356C5.89924 6.05316 5.89084 6.07276 5.88524 6.09236C5.86844 6.15115 5.85444 6.20995 5.82925 6.26314C5.81805 6.28834 5.80125 6.31074 5.79005 6.33594C5.76765 6.38073 5.74525 6.42833 5.71445 6.47033C5.69766 6.49553 5.67526 6.51792 5.65566 6.54032C5.62486 6.57952 5.59686 6.61872 5.56327 6.65231C5.54087 6.67471 5.51567 6.69151 5.49047 6.71111C5.45407 6.74191 5.41768 6.77551 5.37848 6.8035C5.35328 6.8203 5.32248 6.8343 5.29728 6.8483C5.25529 6.8735 5.21609 6.8987 5.17129 6.9183C5.1405 6.93229 5.1069 6.93789 5.0733 6.94909C5.0285 6.96309 4.98651 6.97989 4.94171 6.99109C4.90811 6.99949 4.87172 6.99669 4.83532 7.00229C4.79052 7.00789 4.74573 7.01629 4.70093 7.01629H4.69813C4.53014 7.01629 4.36495 6.97989 4.21656 6.9155C3.7714 6.72231 3.44942 6.27434 3.45782 5.77318C3.45782 5.68918 3.46902 5.60799 3.48582 5.5268C3.49142 5.4988 3.50542 5.4736 3.51102 5.4456C3.52501 5.39521 3.53901 5.34481 3.56141 5.29441C3.57541 5.26362 3.59221 5.23842 3.60901 5.21042C3.63141 5.16842 3.65381 5.12363 3.679 5.08443C3.6986 5.05643 3.7238 5.03123 3.7462 5.00603C3.7742 4.96964 3.80219 4.93324 3.83579 4.90244C3.86099 4.87724 3.88899 4.85765 3.91699 4.83525C3.95058 4.80725 3.98418 4.77645 4.02058 4.75125C4.05138 4.73165 4.08217 4.71766 4.11577 4.70086C4.15497 4.67846 4.19137 4.65606 4.23056 4.63926C4.26416 4.62526 4.30056 4.61686 4.33416 4.60566C4.37615 4.59166 4.41535 4.57767 4.46015 4.56647C4.49654 4.55807 4.53574 4.55807 4.57214 4.55527C4.61413 4.54967 4.65333 4.54127 4.69533 4.54127C4.70093 4.54127 4.70933 4.54127 4.71493 4.54127C5.38408 4.55247 5.93564 5.11803 5.93284 5.78718C5.93004 5.87397 5.92164 5.95517 5.90484 6.03356ZM10.3537 6.46193C10.3089 6.52632 10.2585 6.58792 10.2025 6.64391C10.0345 6.8119 9.82175 6.93509 9.58377 6.98829C9.50538 7.00509 9.42138 7.01629 9.33739 7.01629C9.33179 7.01629 9.32619 7.01629 9.32059 7.01629C9.27859 7.01629 9.2394 7.00789 9.1974 7.00229C9.161 6.99949 9.12181 6.99669 9.08541 6.99109C9.04341 6.98269 9.00141 6.96589 8.95942 6.95469C8.92302 6.94349 8.88662 6.93509 8.85302 6.92109C8.81383 6.9043 8.77743 6.8819 8.73823 6.8595C8.70744 6.8427 8.67384 6.8287 8.64304 6.8063C8.60664 6.78111 8.57585 6.75311 8.54225 6.72511C8.51425 6.70271 8.48345 6.68311 8.45825 6.65791C8.42746 6.62712 8.40226 6.59072 8.37426 6.55712C8.35186 6.52912 8.32666 6.50393 8.30707 6.47593C8.28187 6.43673 8.26227 6.39473 8.23987 6.35554C8.22307 6.32754 8.20627 6.29954 8.19227 6.26874C8.17268 6.22115 8.15868 6.17075 8.14468 6.12035C8.13628 6.09236 8.12508 6.06716 8.11948 6.03916C8.10268 5.96076 8.09148 5.87677 8.09148 5.79278C8.09148 5.70878 8.09988 5.62479 8.11388 5.5464C8.16148 5.30561 8.28187 5.09003 8.44985 4.91924C8.67384 4.69246 8.98182 4.54967 9.32059 4.54687C9.32339 4.54687 9.32899 4.54687 9.33179 4.54687C9.37379 4.54687 9.41578 4.55527 9.45778 4.56087C9.49418 4.56367 9.53338 4.56647 9.56977 4.57207C9.61177 4.58047 9.65377 4.59726 9.69576 4.61126C9.72936 4.62246 9.76576 4.63086 9.79936 4.64486C9.83855 4.66166 9.87775 4.68686 9.91415 4.70926C9.94495 4.72605 9.97854 4.74005 10.0093 4.76245C10.0457 4.78765 10.0793 4.81845 10.1129 4.84645C10.1409 4.86884 10.1689 4.88844 10.1941 4.91364C10.2249 4.94444 10.2529 4.98364 10.2809 5.01723C10.3033 5.04523 10.3285 5.06763 10.3481 5.09843C10.3733 5.13763 10.3929 5.17962 10.4153 5.22162C10.4321 5.25242 10.4517 5.27761 10.4629 5.31121C10.4825 5.35881 10.4965 5.4092 10.5105 5.4568C10.5189 5.4848 10.5329 5.5128 10.5385 5.5408C10.5525 5.61079 10.5609 5.68638 10.5637 5.75918C10.5637 5.76758 10.5665 5.77598 10.5665 5.78718C10.5665 5.84877 10.5609 5.91037 10.5525 5.97196C10.5217 6.14555 10.4517 6.31354 10.3537 6.46193ZM15.1582 6.03076C15.1526 6.05596 15.1414 6.07836 15.1358 6.10355C15.1218 6.15675 15.1078 6.21275 15.0854 6.26314C15.0742 6.29114 15.0546 6.31914 15.0406 6.34434C15.0182 6.38633 14.9986 6.43113 14.9706 6.47313C14.951 6.50113 14.9258 6.52632 14.9034 6.55432C14.8754 6.58792 14.8502 6.62712 14.8194 6.65791C14.7942 6.68311 14.7662 6.70271 14.7382 6.72511C14.7046 6.75311 14.6738 6.7839 14.6346 6.8091C14.6066 6.8287 14.573 6.8427 14.5422 6.8595C14.503 6.8819 14.4666 6.9043 14.4274 6.92109C14.3938 6.93509 14.3574 6.94349 14.321 6.95469C14.279 6.96869 14.2398 6.98549 14.195 6.99389C14.1586 7.00229 14.1194 7.00229 14.083 7.00509C14.041 7.01069 13.999 7.01909 13.9543 7.01909C13.9515 7.01909 13.9487 7.01909 13.9459 7.01909C13.2767 7.01349 12.7167 6.45913 12.7111 5.79278C12.7083 5.4596 12.8483 5.14882 13.0723 4.92204C13.2403 4.75125 13.4587 4.62806 13.6995 4.57487C13.7807 4.55807 13.8619 4.54687 13.9459 4.54687C13.9487 4.54687 13.9515 4.54687 13.9571 4.54687C14.0018 4.54687 14.0438 4.55527 14.0858 4.56087C14.1222 4.56367 14.1614 4.56367 14.1978 4.57207C14.2398 4.58047 14.2818 4.59726 14.3238 4.61126C14.3574 4.62246 14.3938 4.63086 14.4274 4.64486C14.4666 4.66166 14.503 4.68686 14.5422 4.70646C14.573 4.72326 14.6066 4.74005 14.6374 4.75965C14.6738 4.78485 14.7046 4.81285 14.7382 4.84085C14.7662 4.86325 14.797 4.88564 14.8222 4.91084C14.853 4.94164 14.8782 4.97804 14.9062 5.01163C14.9286 5.03963 14.9538 5.06483 14.9734 5.09563C14.9986 5.13483 15.0182 5.17682 15.0406 5.21882C15.0574 5.24682 15.0742 5.27482 15.0882 5.30561C15.1078 5.35321 15.1218 5.40641 15.1358 5.4568C15.1442 5.4848 15.1554 5.51 15.161 5.538C15.1778 5.61919 15.1862 5.70038 15.1862 5.78718C15.1834 5.86557 15.175 5.94957 15.1582 6.03076Z" fill="white"/>
<path d="M7.24601 22.4685C7.24601 22.8269 7.15361 23.146 6.97163 23.4232C6.78964 23.7004 6.52646 23.9188 6.18488 24.0728C5.84051 24.2268 5.44014 24.3052 4.97817 24.3052C4.5918 24.3052 4.26982 24.2772 4.00944 24.224C3.74906 24.1708 3.47748 24.0756 3.1947 23.9412V22.5469C3.49148 22.7009 3.80226 22.8185 4.12423 22.9053C4.44621 22.9921 4.74299 23.0341 5.01177 23.0341C5.24415 23.0341 5.41494 22.9949 5.52133 22.9137C5.63052 22.8325 5.68372 22.7289 5.68372 22.6029C5.68372 22.5245 5.66132 22.4545 5.61933 22.3957C5.57453 22.3369 5.50453 22.2753 5.40934 22.2165C5.31415 22.1549 5.05657 22.0317 4.6394 21.8441C4.26142 21.6734 3.97865 21.5054 3.79106 21.3458C3.60347 21.1862 3.46348 21.0014 3.37109 20.7914C3.2787 20.5814 3.2339 20.3351 3.2339 20.0523C3.2339 19.5203 3.42709 19.1031 3.81626 18.8064C4.20543 18.5068 4.73739 18.3584 5.41494 18.3584C6.0141 18.3584 6.62445 18.4984 7.24601 18.7728L6.76724 19.9795C6.22688 19.7303 5.75932 19.6071 5.36734 19.6071C5.16296 19.6071 5.01737 19.6435 4.92498 19.7135C4.83258 19.7835 4.78779 19.8731 4.78779 19.9795C4.78779 20.0943 4.84658 20.1951 4.96417 20.2847C5.08177 20.3743 5.40094 20.5394 5.9189 20.7746C6.41727 20.9986 6.76444 21.2394 6.95763 21.497C7.14801 21.7545 7.24601 22.0793 7.24601 22.4685Z" fill="white"/>
<path d="M11.1462 24.2266L9.96184 20.0605H9.92825C9.98424 20.7717 10.0122 21.3204 10.0122 21.7152V24.2294H8.62634V18.4395H10.7094L11.9161 22.5468H11.9469L13.1312 18.4395H15.2171V24.2266H13.7808V21.69C13.7808 21.5584 13.7836 21.4128 13.7864 21.2504C13.7892 21.0909 13.8088 20.6961 13.8396 20.0661H13.8032L12.6356 24.2266H11.1462Z" fill="white"/>
<path d="M20.7326 22.4685C20.7326 22.8269 20.6402 23.146 20.4582 23.4232C20.2762 23.7004 20.013 23.9188 19.6715 24.0728C19.3271 24.2268 18.9267 24.3052 18.4647 24.3052C18.0784 24.3052 17.7564 24.2772 17.496 24.224C17.2356 24.1708 16.9641 24.0756 16.6813 23.9412V22.5469C16.9781 22.7009 17.2888 22.8185 17.6108 22.9053C17.9328 22.9921 18.2296 23.0341 18.4983 23.0341C18.7307 23.0341 18.9015 22.9949 19.0079 22.9137C19.1171 22.8325 19.1703 22.7289 19.1703 22.6029C19.1703 22.5245 19.1479 22.4545 19.1059 22.3957C19.0611 22.3369 18.9911 22.2753 18.8959 22.2165C18.8007 22.1549 18.5431 22.0317 18.126 21.8441C17.748 21.6734 17.4652 21.5054 17.2776 21.3458C17.09 21.1862 16.9501 21.0014 16.8577 20.7914C16.7653 20.5814 16.7205 20.3351 16.7205 20.0523C16.7205 19.5203 16.9137 19.1031 17.3028 18.8064C17.692 18.5068 18.224 18.3584 18.9015 18.3584C19.5007 18.3584 20.111 18.4984 20.7326 18.7728L20.2538 19.9795C19.7135 19.7303 19.2459 19.6071 18.8539 19.6071C18.6495 19.6071 18.5039 19.6435 18.4115 19.7135C18.3192 19.7835 18.2744 19.8731 18.2744 19.9795C18.2744 20.0943 18.3332 20.1951 18.4507 20.2847C18.5683 20.3743 18.8875 20.5394 19.4055 20.7746C19.9038 20.9986 20.251 21.2394 20.4442 21.497C20.6346 21.7546 20.7326 22.0793 20.7326 22.4685Z" fill="white"/>
</g>
<defs>
<clipPath id="clip0_568_797">
<rect width="24" height="24" fill="white"/>
</clipPath>
</defs>
</svg>
