<svg width="24" height="24" viewBox="0 0 24 24" fill="none" xmlns="http://www.w3.org/2000/svg">
<path d="M17.076 4.2816V8.6352H14.2632V2.16C14.2632 0.972 13.2912 0 12.1032 0H2.16C0.972 0 0 0.972 0 2.16V21.84C0 23.028 0.972 24 2.16 24H12.1032C13.2912 24 14.2632 23.028 14.2632 21.84V14.4552H17.076V18.8088L24 11.5464L17.076 4.2816ZM7.1328 22.7664C6.3504 22.7664 5.7168 22.1328 5.7168 21.3504C5.7168 20.568 6.3504 19.9344 7.1328 19.9344C7.9152 19.9344 8.5488 20.568 8.5488 21.3504C8.5488 22.1328 7.9152 22.7664 7.1328 22.7664ZM12.2664 8.6352H7.1232V14.4552H12.2664V17.9784C12.2664 18.54 11.808 18.9984 11.2464 18.9984H3.0168C2.4552 18.9984 1.9968 18.54 1.9968 17.9784V3.3816C1.9968 2.82 2.4552 2.3616 3.0168 2.3616H11.2464C11.808 2.3616 12.2664 2.82 12.2664 3.3816V8.6352Z" fill="#4A4A4A"/>
</svg>
