<svg width="24" height="24" viewBox="0 0 24 24" fill="none" xmlns="http://www.w3.org/2000/svg">
<path d="M22.2861 7.1136C22.2909 6.5232 22.0389 6.096 21.5949 5.7528C21.1509 5.412 20.6565 5.24641 20.0877 5.24881C19.5981 5.24881 19.1061 5.2488 18.6165 5.2512C18.6165 5.9016 18.6165 6.5544 18.6165 7.2048V10.3104C18.6165 10.8456 18.4341 11.6088 17.5605 12.1968C17.0181 12.564 16.3941 12.7488 15.7053 12.7488H14.4453H13.0509C11.2797 12.7488 9.50606 12.7488 7.73486 12.7536C7.73486 12.9648 7.73486 13.176 7.73486 13.3872C7.73486 13.8384 7.96766 14.1648 8.32286 14.4048C8.68766 14.652 9.09806 14.7624 9.53966 14.7624C12.0957 14.7624 14.6493 14.7624 17.2053 14.7672C17.3157 14.7672 17.4381 14.8008 17.5317 14.856C18.6525 15.5088 19.7685 16.1688 20.8845 16.8288C20.9253 16.8528 20.9685 16.8768 21.0501 16.9248C20.8557 16.1808 20.6733 15.4776 20.4837 14.7528C20.5629 14.7384 20.6325 14.724 20.7021 14.712C21.1437 14.6352 21.5469 14.4768 21.8829 14.1744C22.1373 13.9464 22.2813 13.6704 22.2813 13.3152C22.2765 11.2488 22.2693 9.18 22.2861 7.1136Z" fill="#5CC60C"/>
<path d="M17.4718 2.43364C17.2582 2.09524 16.999 1.83124 16.6918 1.65364C16.5382 1.56484 16.3726 1.49524 16.195 1.44964C16.0174 1.40404 15.8254 1.38004 15.6214 1.38004C13.8214 1.38004 12.019 1.38004 10.219 1.38004C10.1134 1.38004 10.0078 1.38004 9.90224 1.38004C9.89984 1.38004 9.89984 1.38004 9.89744 1.38004C7.97264 1.38004 6.05024 1.38004 4.12544 1.37524C4.08224 1.37524 4.03904 1.37764 3.99824 1.38004C3.96224 1.38244 3.92864 1.38244 3.89264 1.38484C3.85184 1.38724 3.81104 1.39444 3.77024 1.39924C3.73664 1.40404 3.70304 1.40644 3.66944 1.41124C3.62864 1.41844 3.58784 1.42804 3.54704 1.43524C3.51584 1.44244 3.48464 1.44724 3.45344 1.45444C3.41264 1.46404 3.37424 1.47604 3.33344 1.48804C3.30464 1.49764 3.27344 1.50484 3.24464 1.51444C3.20624 1.52644 3.16784 1.54324 3.13184 1.55764C3.10304 1.56964 3.07184 1.57924 3.04304 1.59124C3.00464 1.60804 2.96864 1.62724 2.93264 1.64404C2.90384 1.65844 2.87504 1.67044 2.84624 1.68484C2.80064 1.70884 2.75744 1.73764 2.71184 1.76404C2.69264 1.77604 2.67344 1.78564 2.65664 1.79764C2.59424 1.83844 2.53184 1.88164 2.47184 1.92964C1.98464 2.30404 1.70864 2.77444 1.71344 3.42244C1.73024 5.69044 1.72304 7.96084 1.71824 10.2288C1.71824 10.6176 1.87664 10.92 2.15504 11.1696C2.52464 11.5008 2.96864 11.676 3.45104 11.76C3.52784 11.7744 3.60224 11.7888 3.69104 11.8032C3.48224 12.6 3.28064 13.3728 3.06944 14.1888C3.16064 14.136 3.20624 14.1096 3.25184 14.0832C4.47824 13.3608 5.70224 12.636 6.93104 11.9184C6.95744 11.904 6.98384 11.8896 7.01504 11.8776C7.07264 11.8536 7.13744 11.8368 7.19744 11.8272C7.22864 11.8224 7.25984 11.82 7.28864 11.82C7.43504 11.82 7.58144 11.82 7.72784 11.82C9.49904 11.8176 11.2726 11.8152 13.0462 11.8152C13.9318 11.8152 14.815 11.8152 15.7006 11.8152C16.1854 11.8152 16.6366 11.6928 17.035 11.4216C17.1334 11.3544 17.2222 11.2824 17.3014 11.2056C17.539 10.9704 17.6806 10.6752 17.683 10.3032C17.683 8.61844 17.683 6.93124 17.683 5.24644C17.683 4.55524 17.683 3.86644 17.683 3.17524C17.6854 2.90884 17.6134 2.65924 17.4718 2.43364ZM6.77504 6.54724C6.77024 6.56404 6.76304 6.58084 6.75824 6.59764C6.74384 6.64804 6.73184 6.69844 6.71024 6.74404C6.70064 6.76564 6.68624 6.78484 6.67664 6.80644C6.65744 6.84484 6.63824 6.88564 6.61184 6.92164C6.59744 6.94324 6.57824 6.96244 6.56144 6.98164C6.53504 7.01524 6.51104 7.04884 6.48224 7.07764C6.46304 7.09684 6.44144 7.11124 6.41984 7.12804C6.38864 7.15444 6.35744 7.18324 6.32384 7.20724C6.30224 7.22164 6.27584 7.23364 6.25424 7.24564C6.21824 7.26724 6.18464 7.28884 6.14624 7.30564C6.11984 7.31764 6.09104 7.32244 6.06224 7.33204C6.02384 7.34404 5.98784 7.35844 5.94944 7.36804C5.92064 7.37524 5.88944 7.37284 5.85824 7.37764C5.81984 7.38244 5.78144 7.38964 5.74304 7.38964H5.74064C5.59664 7.38964 5.45504 7.35844 5.32784 7.30324C4.94624 7.13764 4.67024 6.75364 4.67744 6.32404C4.67744 6.25204 4.68704 6.18244 4.70144 6.11284C4.70624 6.08884 4.71824 6.06724 4.72304 6.04324C4.73504 6.00004 4.74704 5.95684 4.76624 5.91364C4.77824 5.88724 4.79264 5.86564 4.80704 5.84164C4.82624 5.80564 4.84544 5.76724 4.86704 5.73364C4.88384 5.70964 4.90544 5.68804 4.92464 5.66644C4.94864 5.63524 4.97264 5.60404 5.00144 5.57764C5.02304 5.55604 5.04704 5.53924 5.07104 5.52004C5.09984 5.49604 5.12864 5.46964 5.15984 5.44804C5.18624 5.43124 5.21264 5.41924 5.24144 5.40484C5.27504 5.38564 5.30624 5.36644 5.33984 5.35204C5.36864 5.34004 5.39984 5.33284 5.42864 5.32324C5.46464 5.31124 5.49824 5.29924 5.53664 5.28964C5.56784 5.28244 5.60144 5.28244 5.63264 5.28004C5.66864 5.27524 5.70224 5.26804 5.73824 5.26804C5.74304 5.26804 5.75024 5.26804 5.75504 5.26804C6.32864 5.27764 6.80144 5.76244 6.79904 6.33604C6.79664 6.41044 6.78944 6.48004 6.77504 6.54724ZM10.5886 6.91444C10.5502 6.96964 10.507 7.02244 10.459 7.07044C10.315 7.21444 10.1326 7.32004 9.92864 7.36564C9.86144 7.38004 9.78944 7.38964 9.71744 7.38964C9.71264 7.38964 9.70784 7.38964 9.70304 7.38964C9.66704 7.38964 9.63344 7.38244 9.59744 7.37764C9.56624 7.37524 9.53264 7.37284 9.50144 7.36804C9.46544 7.36084 9.42944 7.34644 9.39344 7.33684C9.36224 7.32724 9.33104 7.32004 9.30224 7.30804C9.26864 7.29364 9.23744 7.27444 9.20384 7.25524C9.17744 7.24084 9.14864 7.22884 9.12224 7.20964C9.09104 7.18804 9.06464 7.16404 9.03584 7.14004C9.01184 7.12084 8.98544 7.10404 8.96384 7.08244C8.93744 7.05604 8.91584 7.02484 8.89184 6.99604C8.87264 6.97204 8.85104 6.95044 8.83424 6.92644C8.81264 6.89284 8.79584 6.85684 8.77664 6.82324C8.76224 6.79924 8.74784 6.77524 8.73584 6.74884C8.71904 6.70804 8.70704 6.66484 8.69504 6.62164C8.68784 6.59764 8.67824 6.57604 8.67344 6.55204C8.65904 6.48484 8.64944 6.41284 8.64944 6.34084C8.64944 6.26884 8.65664 6.19684 8.66864 6.12964C8.70944 5.92324 8.81264 5.73844 8.95664 5.59204C9.14864 5.39764 9.41264 5.27524 9.70304 5.27284C9.70544 5.27284 9.71024 5.27284 9.71264 5.27284C9.74864 5.27284 9.78464 5.28004 9.82064 5.28484C9.85184 5.28724 9.88544 5.28964 9.91664 5.29444C9.95264 5.30164 9.98864 5.31604 10.0246 5.32804C10.0534 5.33764 10.0846 5.34484 10.1134 5.35684C10.147 5.37124 10.1806 5.39284 10.2118 5.41204C10.2382 5.42644 10.267 5.43844 10.2934 5.45764C10.3246 5.47924 10.3534 5.50564 10.3822 5.52964C10.4062 5.54884 10.4302 5.56564 10.4518 5.58724C10.4782 5.61364 10.5022 5.64724 10.5262 5.67604C10.5454 5.70004 10.567 5.71924 10.5838 5.74564C10.6054 5.77924 10.6222 5.81524 10.6414 5.85124C10.6558 5.87764 10.6726 5.89924 10.6822 5.92804C10.699 5.96884 10.711 6.01204 10.723 6.05284C10.7302 6.07684 10.7422 6.10084 10.747 6.12484C10.759 6.18484 10.7662 6.24964 10.7686 6.31204C10.7686 6.31924 10.771 6.32644 10.771 6.33604C10.771 6.38884 10.7662 6.44164 10.759 6.49444C10.7326 6.64324 10.6726 6.78724 10.5886 6.91444ZM14.707 6.54484C14.7022 6.56644 14.6926 6.58564 14.6878 6.60724C14.6758 6.65284 14.6638 6.70084 14.6446 6.74404C14.635 6.76804 14.6182 6.79204 14.6062 6.81364C14.587 6.84964 14.5702 6.88804 14.5462 6.92404C14.5294 6.94804 14.5078 6.96964 14.4886 6.99364C14.4646 7.02244 14.443 7.05604 14.4166 7.08244C14.395 7.10404 14.371 7.12084 14.347 7.14004C14.3182 7.16404 14.2918 7.19044 14.2582 7.21204C14.2342 7.22884 14.2054 7.24084 14.179 7.25524C14.1454 7.27444 14.1142 7.29364 14.0806 7.30804C14.0518 7.32004 14.0206 7.32724 13.9894 7.33684C13.9534 7.34884 13.9198 7.36324 13.8814 7.37044C13.8502 7.37764 13.8166 7.37764 13.7854 7.38004C13.7494 7.38484 13.7134 7.39204 13.675 7.39204C13.6726 7.39204 13.6702 7.39204 13.6678 7.39204C13.0942 7.38724 12.6142 6.91204 12.6094 6.34084C12.607 6.05524 12.727 5.78884 12.919 5.59444C13.063 5.44804 13.2502 5.34244 13.4566 5.29684C13.5262 5.28244 13.5958 5.27284 13.6678 5.27284C13.6702 5.27284 13.6726 5.27284 13.6774 5.27284C13.7158 5.27284 13.7518 5.28004 13.7878 5.28484C13.819 5.28724 13.8526 5.28724 13.8838 5.29444C13.9198 5.30164 13.9558 5.31604 13.9918 5.32804C14.0206 5.33764 14.0518 5.34484 14.0806 5.35684C14.1142 5.37124 14.1454 5.39284 14.179 5.40964C14.2054 5.42404 14.2342 5.43844 14.2606 5.45524C14.2918 5.47684 14.3182 5.50084 14.347 5.52484C14.371 5.54404 14.3974 5.56324 14.419 5.58484C14.4454 5.61124 14.467 5.64244 14.491 5.67124C14.5102 5.69524 14.5318 5.71684 14.5486 5.74324C14.5702 5.77684 14.587 5.81284 14.6062 5.84884C14.6206 5.87284 14.635 5.89684 14.647 5.92324C14.6638 5.96404 14.6758 6.00964 14.6878 6.05284C14.695 6.07684 14.7046 6.09844 14.7094 6.12244C14.7238 6.19204 14.731 6.26164 14.731 6.33604C14.7286 6.40324 14.7214 6.47524 14.707 6.54484Z" fill="#5CC60C"/>
<path d="M7.92446 20.6353C7.92446 20.9425 7.84526 21.2161 7.68926 21.4537C7.53326 21.6913 7.30766 21.8785 7.01486 22.0105C6.71966 22.1425 6.37646 22.2097 5.98046 22.2097C5.64926 22.2097 5.37326 22.1857 5.15006 22.1401C4.92686 22.0945 4.69406 22.0129 4.45166 21.8977V20.7025C4.70606 20.8345 4.97246 20.9353 5.24846 21.0097C5.52446 21.0841 5.77886 21.1201 6.00926 21.1201C6.20846 21.1201 6.35486 21.0865 6.44606 21.0169C6.53966 20.9473 6.58526 20.8585 6.58526 20.7505C6.58526 20.6833 6.56606 20.6233 6.53006 20.5729C6.49166 20.5225 6.43166 20.4697 6.35006 20.4193C6.26846 20.3665 6.04766 20.2609 5.69006 20.1001C5.36606 19.9537 5.12366 19.8097 4.96286 19.6729C4.80206 19.5361 4.68206 19.3777 4.60286 19.1977C4.52366 19.0177 4.48526 18.8065 4.48526 18.5641C4.48526 18.1081 4.65086 17.7505 4.98446 17.4961C5.31806 17.2393 5.77406 17.1121 6.35486 17.1121C6.86846 17.1121 7.39166 17.2321 7.92446 17.4673L7.51406 18.5017C7.05086 18.2881 6.65006 18.1825 6.31406 18.1825C6.13886 18.1825 6.01406 18.2137 5.93486 18.2737C5.85566 18.3337 5.81726 18.4105 5.81726 18.5017C5.81726 18.6001 5.86766 18.6865 5.96846 18.7633C6.06926 18.8401 6.34286 18.9817 6.78686 19.1833C7.21406 19.3753 7.51166 19.5817 7.67726 19.8025C7.84046 20.0233 7.92446 20.3017 7.92446 20.6353Z" fill="#5CC60C"/>
<path d="M11.2679 22.1424L10.2527 18.5712H10.2239C10.2719 19.1808 10.2959 19.6512 10.2959 19.9896V22.1448H9.10791V17.1816H10.8935L11.9279 20.7024H11.9543L12.9695 17.1816H14.7575V22.1424H13.5263V19.968C13.5263 19.8552 13.5287 19.7304 13.5311 19.5912C13.5335 19.4544 13.5503 19.116 13.5767 18.576H13.5455L12.5447 22.1424H11.2679Z" fill="#5CC60C"/>
<path d="M19.4855 20.6353C19.4855 20.9425 19.4063 21.2161 19.2503 21.4537C19.0943 21.6913 18.8687 21.8785 18.5759 22.0105C18.2807 22.1425 17.9375 22.2097 17.5415 22.2097C17.2103 22.2097 16.9343 22.1857 16.7111 22.1401C16.4879 22.0945 16.2551 22.0129 16.0127 21.8977V20.7025C16.2671 20.8345 16.5335 20.9353 16.8095 21.0097C17.0855 21.0841 17.3399 21.1201 17.5703 21.1201C17.7695 21.1201 17.9159 21.0865 18.0071 21.0169C18.1007 20.9473 18.1463 20.8585 18.1463 20.7505C18.1463 20.6833 18.1271 20.6233 18.0911 20.5729C18.0527 20.5225 17.9927 20.4697 17.9111 20.4193C17.8295 20.3665 17.6087 20.2609 17.2511 20.1001C16.9271 19.9537 16.6847 19.8097 16.5239 19.6729C16.3631 19.5361 16.2431 19.3777 16.1639 19.1977C16.0847 19.0177 16.0463 18.8065 16.0463 18.5641C16.0463 18.1081 16.2119 17.7505 16.5455 17.4961C16.8791 17.2393 17.3351 17.1121 17.9159 17.1121C18.4295 17.1121 18.9527 17.2321 19.4855 17.4673L19.0751 18.5017C18.6119 18.2881 18.2111 18.1825 17.8751 18.1825C17.6999 18.1825 17.5751 18.2137 17.4959 18.2737C17.4167 18.3337 17.3783 18.4105 17.3783 18.5017C17.3783 18.6001 17.4287 18.6865 17.5295 18.7633C17.6303 18.8401 17.9039 18.9817 18.3479 19.1833C18.7751 19.3753 19.0727 19.5817 19.2383 19.8025C19.4015 20.0233 19.4855 20.3017 19.4855 20.6353Z" fill="#5CC60C"/>
</svg>
