<svg width="22" height="22" viewBox="0 0 22 22" fill="none" xmlns="http://www.w3.org/2000/svg">
<path d="M21.2856 6.1136C21.2904 5.5232 21.0384 5.096 20.5944 4.7528C20.1504 4.412 19.656 4.24641 19.0872 4.24881C18.5976 4.24881 18.1056 4.2488 17.616 4.2512C17.616 4.9016 17.616 5.5544 17.616 6.2048V9.3104C17.616 9.8456 17.4336 10.6088 16.56 11.1968C16.0176 11.564 15.3936 11.7488 14.7048 11.7488H13.4448H12.0504C10.2792 11.7488 8.50557 11.7488 6.73438 11.7536C6.73438 11.9648 6.73438 12.176 6.73438 12.3872C6.73438 12.8384 6.96718 13.1648 7.32238 13.4048C7.68718 13.652 8.09757 13.7624 8.53917 13.7624C11.0952 13.7624 13.6488 13.7624 16.2048 13.7672C16.3152 13.7672 16.4376 13.8008 16.5312 13.856C17.652 14.5088 18.768 15.1688 19.884 15.8288C19.9248 15.8528 19.968 15.8768 20.0496 15.9248C19.8552 15.1808 19.6728 14.4776 19.4832 13.7528C19.5624 13.7384 19.632 13.724 19.7016 13.712C20.1432 13.6352 20.5464 13.4768 20.8824 13.1744C21.1368 12.9464 21.2808 12.6704 21.2808 12.3152C21.276 10.2488 21.2688 8.18 21.2856 6.1136Z" fill="#4A4A4A"/>
<path d="M16.4714 1.43364C16.2578 1.09524 15.9986 0.831244 15.6914 0.653644C15.5378 0.564844 15.3722 0.495244 15.1946 0.449644C15.017 0.404044 14.825 0.380044 14.621 0.380044C12.821 0.380044 11.0186 0.380044 9.21855 0.380044C9.11295 0.380044 9.00735 0.380044 8.90175 0.380044C8.89935 0.380044 8.89935 0.380044 8.89695 0.380044C6.97215 0.380044 5.04975 0.380044 3.12495 0.375244C3.08175 0.375244 3.03855 0.377644 2.99775 0.380044C2.96175 0.382444 2.92815 0.382444 2.89215 0.384844C2.85135 0.387244 2.81055 0.394444 2.76975 0.399244C2.73615 0.404044 2.70255 0.406444 2.66895 0.411244C2.62815 0.418444 2.58735 0.428044 2.54655 0.435244C2.51535 0.442444 2.48415 0.447244 2.45295 0.454444C2.41215 0.464044 2.37375 0.476044 2.33295 0.488044C2.30415 0.497644 2.27295 0.504844 2.24415 0.514444C2.20575 0.526444 2.16735 0.543244 2.13135 0.557644C2.10255 0.569644 2.07135 0.579244 2.04255 0.591244C2.00415 0.608044 1.96815 0.627244 1.93215 0.644044C1.90335 0.658444 1.87455 0.670444 1.84575 0.684844C1.80015 0.708844 1.75695 0.737644 1.71135 0.764044C1.69215 0.776044 1.67295 0.785644 1.65615 0.797644C1.59375 0.838444 1.53135 0.881644 1.47135 0.929644C0.984152 1.30404 0.708152 1.77444 0.712952 2.42244C0.729752 4.69044 0.722552 6.96084 0.717752 9.22884C0.717752 9.61764 0.876152 9.92004 1.15455 10.1696C1.52415 10.5008 1.96815 10.676 2.45055 10.76C2.52735 10.7744 2.60175 10.7888 2.69055 10.8032C2.48175 11.6 2.28015 12.3728 2.06895 13.1888C2.16015 13.136 2.20575 13.1096 2.25135 13.0832C3.47775 12.3608 4.70175 11.636 5.93055 10.9184C5.95695 10.904 5.98335 10.8896 6.01455 10.8776C6.07215 10.8536 6.13695 10.8368 6.19695 10.8272C6.22815 10.8224 6.25935 10.82 6.28815 10.82C6.43455 10.82 6.58095 10.82 6.72735 10.82C8.49855 10.8176 10.2722 10.8152 12.0458 10.8152C12.9314 10.8152 13.8146 10.8152 14.7002 10.8152C15.185 10.8152 15.6362 10.6928 16.0346 10.4216C16.133 10.3544 16.2218 10.2824 16.301 10.2056C16.5386 9.97044 16.6802 9.67524 16.6826 9.30324C16.6826 7.61844 16.6826 5.93124 16.6826 4.24644C16.6826 3.55524 16.6826 2.86644 16.6826 2.17524C16.685 1.90884 16.613 1.65924 16.4714 1.43364ZM5.77455 5.54724C5.76975 5.56404 5.76255 5.58084 5.75775 5.59764C5.74335 5.64804 5.73135 5.69844 5.70975 5.74404C5.70015 5.76564 5.68575 5.78484 5.67615 5.80644C5.65695 5.84484 5.63775 5.88564 5.61135 5.92164C5.59695 5.94324 5.57775 5.96244 5.56095 5.98164C5.53455 6.01524 5.51055 6.04884 5.48175 6.07764C5.46255 6.09684 5.44095 6.11124 5.41935 6.12804C5.38815 6.15444 5.35695 6.18324 5.32335 6.20724C5.30175 6.22164 5.27535 6.23364 5.25375 6.24564C5.21775 6.26724 5.18415 6.28884 5.14575 6.30564C5.11935 6.31764 5.09055 6.32244 5.06175 6.33204C5.02335 6.34404 4.98735 6.35844 4.94895 6.36804C4.92015 6.37524 4.88895 6.37284 4.85775 6.37764C4.81935 6.38244 4.78095 6.38964 4.74255 6.38964H4.74015C4.59615 6.38964 4.45455 6.35844 4.32735 6.30324C3.94575 6.13764 3.66975 5.75364 3.67695 5.32404C3.67695 5.25204 3.68655 5.18244 3.70095 5.11284C3.70575 5.08884 3.71775 5.06724 3.72255 5.04324C3.73455 5.00004 3.74655 4.95684 3.76575 4.91364C3.77775 4.88724 3.79215 4.86564 3.80655 4.84164C3.82575 4.80564 3.84495 4.76724 3.86655 4.73364C3.88335 4.70964 3.90495 4.68804 3.92415 4.66644C3.94815 4.63524 3.97215 4.60404 4.00095 4.57764C4.02255 4.55604 4.04655 4.53924 4.07055 4.52004C4.09935 4.49604 4.12815 4.46964 4.15935 4.44804C4.18575 4.43124 4.21215 4.41924 4.24095 4.40484C4.27455 4.38564 4.30575 4.36644 4.33935 4.35204C4.36815 4.34004 4.39935 4.33284 4.42815 4.32324C4.46415 4.31124 4.49775 4.29924 4.53615 4.28964C4.56735 4.28244 4.60095 4.28244 4.63215 4.28004C4.66815 4.27524 4.70175 4.26804 4.73775 4.26804C4.74255 4.26804 4.74975 4.26804 4.75455 4.26804C5.32815 4.27764 5.80095 4.76244 5.79855 5.33604C5.79615 5.41044 5.78895 5.48004 5.77455 5.54724ZM9.58815 5.91444C9.54975 5.96964 9.50655 6.02244 9.45855 6.07044C9.31455 6.21444 9.13215 6.32004 8.92815 6.36564C8.86095 6.38004 8.78895 6.38964 8.71695 6.38964C8.71215 6.38964 8.70735 6.38964 8.70255 6.38964C8.66655 6.38964 8.63295 6.38244 8.59695 6.37764C8.56575 6.37524 8.53215 6.37284 8.50095 6.36804C8.46495 6.36084 8.42895 6.34644 8.39295 6.33684C8.36175 6.32724 8.33055 6.32004 8.30175 6.30804C8.26815 6.29364 8.23695 6.27444 8.20335 6.25524C8.17695 6.24084 8.14815 6.22884 8.12175 6.20964C8.09055 6.18804 8.06415 6.16404 8.03535 6.14004C8.01135 6.12084 7.98495 6.10404 7.96335 6.08244C7.93695 6.05604 7.91535 6.02484 7.89135 5.99604C7.87215 5.97204 7.85055 5.95044 7.83375 5.92644C7.81215 5.89284 7.79535 5.85684 7.77615 5.82324C7.76175 5.79924 7.74735 5.77524 7.73535 5.74884C7.71855 5.70804 7.70655 5.66484 7.69455 5.62164C7.68735 5.59764 7.67775 5.57604 7.67295 5.55204C7.65855 5.48484 7.64895 5.41284 7.64895 5.34084C7.64895 5.26884 7.65615 5.19684 7.66815 5.12964C7.70895 4.92324 7.81215 4.73844 7.95615 4.59204C8.14815 4.39764 8.41215 4.27524 8.70255 4.27284C8.70495 4.27284 8.70975 4.27284 8.71215 4.27284C8.74815 4.27284 8.78415 4.28004 8.82015 4.28484C8.85135 4.28724 8.88495 4.28964 8.91615 4.29444C8.95215 4.30164 8.98815 4.31604 9.02415 4.32804C9.05295 4.33764 9.08415 4.34484 9.11295 4.35684C9.14655 4.37124 9.18015 4.39284 9.21135 4.41204C9.23775 4.42644 9.26655 4.43844 9.29295 4.45764C9.32415 4.47924 9.35295 4.50564 9.38175 4.52964C9.40575 4.54884 9.42975 4.56564 9.45135 4.58724C9.47775 4.61364 9.50175 4.64724 9.52575 4.67604C9.54495 4.70004 9.56655 4.71924 9.58335 4.74564C9.60495 4.77924 9.62175 4.81524 9.64095 4.85124C9.65535 4.87764 9.67215 4.89924 9.68175 4.92804C9.69855 4.96884 9.71055 5.01204 9.72255 5.05284C9.72975 5.07684 9.74175 5.10084 9.74655 5.12484C9.75855 5.18484 9.76575 5.24964 9.76815 5.31204C9.76815 5.31924 9.77055 5.32644 9.77055 5.33604C9.77055 5.38884 9.76575 5.44164 9.75855 5.49444C9.73215 5.64324 9.67215 5.78724 9.58815 5.91444ZM13.7066 5.54484C13.7018 5.56644 13.6922 5.58564 13.6874 5.60724C13.6754 5.65284 13.6634 5.70084 13.6442 5.74404C13.6346 5.76804 13.6178 5.79204 13.6058 5.81364C13.5866 5.84964 13.5698 5.88804 13.5458 5.92404C13.529 5.94804 13.5074 5.96964 13.4882 5.99364C13.4642 6.02244 13.4426 6.05604 13.4162 6.08244C13.3946 6.10404 13.3706 6.12084 13.3466 6.14004C13.3178 6.16404 13.2914 6.19044 13.2578 6.21204C13.2338 6.22884 13.205 6.24084 13.1786 6.25524C13.145 6.27444 13.1138 6.29364 13.0802 6.30804C13.0514 6.32004 13.0202 6.32724 12.989 6.33684C12.953 6.34884 12.9194 6.36324 12.881 6.37044C12.8498 6.37764 12.8162 6.37764 12.785 6.38004C12.749 6.38484 12.713 6.39204 12.6746 6.39204C12.6722 6.39204 12.6698 6.39204 12.6674 6.39204C12.0938 6.38724 11.6138 5.91204 11.609 5.34084C11.6066 5.05524 11.7266 4.78884 11.9186 4.59444C12.0626 4.44804 12.2498 4.34244 12.4562 4.29684C12.5258 4.28244 12.5954 4.27284 12.6674 4.27284C12.6698 4.27284 12.6722 4.27284 12.677 4.27284C12.7154 4.27284 12.7514 4.28004 12.7874 4.28484C12.8186 4.28724 12.8522 4.28724 12.8834 4.29444C12.9194 4.30164 12.9554 4.31604 12.9914 4.32804C13.0202 4.33764 13.0514 4.34484 13.0802 4.35684C13.1138 4.37124 13.145 4.39284 13.1786 4.40964C13.205 4.42404 13.2338 4.43844 13.2602 4.45524C13.2914 4.47684 13.3178 4.50084 13.3466 4.52484C13.3706 4.54404 13.397 4.56324 13.4186 4.58484C13.445 4.61124 13.4666 4.64244 13.4906 4.67124C13.5098 4.69524 13.5314 4.71684 13.5482 4.74324C13.5698 4.77684 13.5866 4.81284 13.6058 4.84884C13.6202 4.87284 13.6346 4.89684 13.6466 4.92324C13.6634 4.96404 13.6754 5.00964 13.6874 5.05284C13.6946 5.07684 13.7042 5.09844 13.709 5.12244C13.7234 5.19204 13.7306 5.26164 13.7306 5.33604C13.7282 5.40324 13.721 5.47524 13.7066 5.54484Z" fill="#4A4A4A"/>
<path d="M6.92397 19.6353C6.92397 19.9425 6.84477 20.2161 6.68877 20.4537C6.53277 20.6913 6.30717 20.8785 6.01437 21.0105C5.71917 21.1425 5.37597 21.2097 4.97997 21.2097C4.64877 21.2097 4.37277 21.1857 4.14957 21.1401C3.92637 21.0945 3.69357 21.0129 3.45117 20.8977V19.7025C3.70557 19.8345 3.97197 19.9353 4.24797 20.0097C4.52397 20.0841 4.77837 20.1201 5.00877 20.1201C5.20797 20.1201 5.35437 20.0865 5.44557 20.0169C5.53917 19.9473 5.58477 19.8585 5.58477 19.7505C5.58477 19.6833 5.56557 19.6233 5.52957 19.5729C5.49117 19.5225 5.43117 19.4697 5.34957 19.4193C5.26797 19.3665 5.04717 19.2609 4.68957 19.1001C4.36557 18.9537 4.12317 18.8097 3.96237 18.6729C3.80157 18.5361 3.68157 18.3777 3.60237 18.1977C3.52317 18.0177 3.48477 17.8065 3.48477 17.5641C3.48477 17.1081 3.65037 16.7505 3.98397 16.4961C4.31757 16.2393 4.77357 16.1121 5.35437 16.1121C5.86797 16.1121 6.39117 16.2321 6.92397 16.4673L6.51357 17.5017C6.05037 17.2881 5.64957 17.1825 5.31357 17.1825C5.13837 17.1825 5.01357 17.2137 4.93437 17.2737C4.85517 17.3337 4.81677 17.4105 4.81677 17.5017C4.81677 17.6001 4.86717 17.6865 4.96797 17.7633C5.06877 17.8401 5.34237 17.9817 5.78637 18.1833C6.21357 18.3753 6.51117 18.5817 6.67677 18.8025C6.83997 19.0233 6.92397 19.3017 6.92397 19.6353Z" fill="#4A4A4A"/>
<path d="M10.2674 21.1424L9.25222 17.5712H9.22342C9.27142 18.1808 9.29542 18.6512 9.29542 18.9896V21.1448H8.10742V16.1816H9.89302L10.9274 19.7024H10.9538L11.969 16.1816H13.757V21.1424H12.5258V18.968C12.5258 18.8552 12.5282 18.7304 12.5306 18.5912C12.533 18.4544 12.5498 18.116 12.5762 17.576H12.545L11.5442 21.1424H10.2674Z" fill="#4A4A4A"/>
<path d="M18.4845 19.6353C18.4845 19.9425 18.4053 20.2161 18.2493 20.4537C18.0933 20.6913 17.8677 20.8785 17.5749 21.0105C17.2797 21.1425 16.9365 21.2097 16.5405 21.2097C16.2093 21.2097 15.9333 21.1857 15.7101 21.1401C15.4869 21.0945 15.2541 21.0129 15.0117 20.8977V19.7025C15.2661 19.8345 15.5325 19.9353 15.8085 20.0097C16.0845 20.0841 16.3389 20.1201 16.5693 20.1201C16.7685 20.1201 16.9149 20.0865 17.0061 20.0169C17.0997 19.9473 17.1453 19.8585 17.1453 19.7505C17.1453 19.6833 17.1261 19.6233 17.0901 19.5729C17.0517 19.5225 16.9917 19.4697 16.9101 19.4193C16.8285 19.3665 16.6077 19.2609 16.2501 19.1001C15.9261 18.9537 15.6837 18.8097 15.5229 18.6729C15.3621 18.5361 15.2421 18.3777 15.1629 18.1977C15.0837 18.0177 15.0453 17.8065 15.0453 17.5641C15.0453 17.1081 15.2109 16.7505 15.5445 16.4961C15.8781 16.2393 16.3341 16.1121 16.9149 16.1121C17.4285 16.1121 17.9517 16.2321 18.4845 16.4673L18.0741 17.5017C17.6109 17.2881 17.2101 17.1825 16.8741 17.1825C16.6989 17.1825 16.5741 17.2137 16.4949 17.2737C16.4157 17.3337 16.3773 17.4105 16.3773 17.5017C16.3773 17.6001 16.4277 17.6865 16.5285 17.7633C16.6293 17.8401 16.9029 17.9817 17.3469 18.1833C17.7741 18.3753 18.0717 18.5817 18.2373 18.8025C18.4005 19.0233 18.4845 19.3017 18.4845 19.6353Z" fill="#4A4A4A"/>
</svg>
