<svg width="26" height="28" viewBox="0 0 26 28" fill="none" xmlns="http://www.w3.org/2000/svg">
<path fill-rule="evenodd" clip-rule="evenodd" d="M13.274 1.53881C13.0173 1.3322 12.6505 1.33473 12.3967 1.54486L1.63764 10.4522C1.47867 10.5839 1.38667 10.7794 1.38667 10.9857V25.9217C1.38667 26.3043 1.69708 26.6145 2.08 26.6145H23.92C24.3029 26.6145 24.6133 26.3043 24.6133 25.9217V10.9974C24.6133 10.7878 24.5183 10.5894 24.3549 10.4579L13.274 1.53881ZM11.5119 0.477967C12.2734 -0.152438 13.3738 -0.160024 14.1439 0.459818L25.2248 9.37891C25.715 9.77344 26 10.3685 26 10.9974V25.9217C26 27.0695 25.0688 28 23.92 28H2.08C0.931248 28 0 27.0695 0 25.9217V10.9857C0 10.3668 0.276009 9.78018 0.752923 9.38535L11.5119 0.477967ZM13.1733 8.25605C13.5563 8.25605 13.8667 8.56621 13.8667 8.94882V14.8374H18.72C19.1029 14.8374 19.4133 15.1475 19.4133 15.5301C19.4133 15.9127 19.1029 16.2229 18.72 16.2229H13.8667V21.7651C13.8667 22.1477 13.5563 22.4578 13.1733 22.4578C12.7904 22.4578 12.48 22.1477 12.48 21.7651V16.2229H7.28C6.89708 16.2229 6.58667 15.9127 6.58667 15.5301C6.58667 15.1475 6.89708 14.8374 7.28 14.8374H12.48V8.94882C12.48 8.56621 12.7904 8.25605 13.1733 8.25605Z" fill="#333333"/>
</svg>
