<svg width="24" height="18" viewBox="0 0 24 18" fill="none" xmlns="http://www.w3.org/2000/svg">
<path d="M23.3828 7.54314C23.366 6.83754 23.3684 6.13434 23.3036 5.43114C23.246 4.78794 23.1668 4.15194 23.0036 3.52554C22.7036 2.37834 21.7652 1.54554 20.594 1.35594C19.502 1.17834 18.398 1.13274 17.2964 1.06074C16.7588 1.02474 16.2212 1.02234 15.6836 0.995938C15.1124 0.969538 14.5388 0.967138 13.9676 0.962338C12.3332 0.955138 10.6988 0.933538 9.06441 0.983938C8.41401 1.00554 7.76601 1.02714 7.11801 1.04874C6.31881 1.07514 5.52201 1.12314 4.72521 1.18554C4.25001 1.22394 3.77241 1.26234 3.30681 1.36314C2.11161 1.62714 1.31721 2.34474 1.00041 3.53514C0.729209 4.54794 0.657209 5.59194 0.635609 6.63594C0.630809 6.90234 0.628409 7.16634 0.602009 7.43034C0.602009 7.46394 0.602009 7.49754 0.602009 7.53114C0.671609 7.60074 0.621209 7.68474 0.628409 7.76154C0.630809 7.81914 0.652409 7.88154 0.602009 7.92954C0.602009 7.96314 0.602009 7.99674 0.602009 8.03034C0.654809 8.11914 0.647609 8.20794 0.602009 8.29674C0.602009 8.61834 0.602009 8.94234 0.602009 9.26394C0.664409 9.35994 0.623609 9.46554 0.633209 9.56634C0.633209 9.65514 0.630809 9.74394 0.630809 9.83274C0.630809 9.89994 0.630809 9.96474 0.630809 10.0319C0.630809 10.0871 0.630809 10.1423 0.630809 10.1999C0.623609 10.2695 0.664409 10.3439 0.599609 10.4015C0.599609 10.4351 0.599609 10.4687 0.599609 10.5023C0.638009 10.6991 0.621209 10.9007 0.628409 11.0975C0.650009 11.6975 0.654809 12.2951 0.726809 12.8927C0.798809 13.4663 0.854009 14.0399 1.03161 14.5943C1.31721 15.4871 1.90281 16.1039 2.76681 16.4543C3.17721 16.6199 3.61401 16.6631 4.05081 16.7231C5.03001 16.8575 6.01881 16.8863 7.00281 16.9439C7.63401 16.9823 8.26761 16.9823 8.89881 17.0087C9.58041 17.0375 10.2644 17.0303 10.9484 17.0399C11.9372 17.0519 12.926 17.0615 13.9148 17.0231C14.7788 16.9895 15.6476 16.9823 16.5116 16.9535C17.1932 16.9319 17.8748 16.8935 18.5564 16.8527C19.238 16.8119 19.9172 16.7495 20.5916 16.6463C21.782 16.4639 22.7228 15.6167 23.006 14.4479C23.1812 13.7231 23.2724 12.9839 23.3228 12.2423C23.366 11.6111 23.3732 10.9775 23.378 10.3439C23.378 10.2863 23.378 10.2263 23.378 10.1687C23.3732 10.1687 23.3708 10.1759 23.366 10.1687C23.366 10.1015 23.366 10.0343 23.366 9.96954C23.366 9.91434 23.366 9.85914 23.3636 9.80154C23.3636 9.73434 23.3636 9.66714 23.3636 9.60234C23.3636 9.52314 23.3636 9.44634 23.3612 9.36714C23.3684 9.27834 23.3324 9.18234 23.3924 9.09834C23.3924 9.04314 23.3924 8.98794 23.3924 8.93034C23.3252 8.80074 23.3732 8.66154 23.3612 8.52954C23.3612 8.45034 23.3636 8.37354 23.3636 8.29434C23.3636 8.20554 23.3636 8.11674 23.366 8.02794C23.3732 7.95114 23.3252 7.86714 23.3924 7.79514C23.3924 7.78314 23.3924 7.77354 23.3924 7.76154C23.366 7.69194 23.39 7.61514 23.3828 7.54314Z" fill="#4A4A4A"/>
<path d="M9.73438 12.4103C9.73438 10.1303 9.73438 7.87432 9.73438 5.58472C11.7096 6.71992 13.6728 7.84792 15.6624 8.99272C13.6776 10.1351 11.7144 11.2679 9.73438 12.4103Z" fill="white"/>
<path d="M23.3986 8.93266C23.3986 8.79826 23.3986 8.66626 23.3986 8.53186C23.3938 8.53186 23.3866 8.53186 23.3818 8.53186C23.3914 8.66626 23.3603 8.80066 23.3986 8.93266Z" fill="#4A4A4A"/>
<path d="M23.382 8.53186C23.3772 8.53186 23.3724 8.53186 23.3676 8.53186C23.3772 8.66626 23.3316 8.80306 23.3988 8.93266C23.3604 8.80066 23.3916 8.66626 23.382 8.53186Z" fill="#4A4A4A"/>
<path d="M0.599609 9.2688C0.599609 9.3696 0.599609 9.468 0.599609 9.5688C0.604409 9.5688 0.611609 9.5688 0.616409 9.5688C0.609209 9.468 0.635609 9.3672 0.599609 9.2688Z" fill="#4A4A4A"/>
<path d="M0.616409 9.56875C0.621209 9.56875 0.626009 9.56875 0.630809 9.56875C0.621209 9.46796 0.662009 9.36236 0.599609 9.26636C0.635609 9.36716 0.609209 9.46796 0.616409 9.56875Z" fill="#4A4A4A"/>
<path d="M0.599609 8.03271C0.599609 8.12151 0.599609 8.21032 0.599609 8.29912C0.626009 8.21032 0.626009 8.12151 0.599609 8.03271Z" fill="#4A4A4A"/>
<path d="M0.599609 8.03271C0.626009 8.12151 0.626009 8.21032 0.599609 8.29912C0.645209 8.21032 0.652409 8.12151 0.599609 8.03271Z" fill="#4A4A4A"/>
<path d="M23.3828 8.04476C23.3828 8.12876 23.3828 8.21516 23.3828 8.29916C23.3876 8.29916 23.3948 8.29916 23.3996 8.29916C23.3996 8.21036 23.3996 8.12156 23.3996 8.03276C23.3948 8.02076 23.3876 8.03036 23.3828 8.03276C23.3828 8.03516 23.3828 8.03996 23.3828 8.04476Z" fill="#4A4A4A"/>
<path d="M23.3831 8.04476C23.3831 8.03996 23.3831 8.03756 23.3831 8.03276C23.3783 8.03516 23.3759 8.02556 23.3735 8.03276C23.3735 8.12156 23.3735 8.21036 23.3711 8.29916C23.3759 8.29916 23.3783 8.29916 23.3831 8.29916C23.3831 8.21276 23.3831 8.12876 23.3831 8.04476Z" fill="#4A4A4A"/>
<path d="M23.3825 9.36955C23.3873 9.36955 23.3945 9.36955 23.3993 9.36955C23.3993 9.28075 23.3993 9.19195 23.3993 9.10315C23.3657 9.18715 23.3897 9.27835 23.3825 9.36955Z" fill="#4A4A4A"/>
<path d="M23.3675 9.36951C23.3723 9.36951 23.3771 9.36951 23.3819 9.36951C23.3891 9.28071 23.3651 9.18951 23.3987 9.10071C23.3387 9.18471 23.3747 9.27831 23.3675 9.36951Z" fill="#4A4A4A"/>
<path d="M0.616409 9.83273C0.616409 9.74633 0.616409 9.66233 0.616409 9.57593C0.616409 9.57353 0.616409 9.57113 0.616409 9.56873C0.611609 9.56873 0.604409 9.56873 0.599609 9.56873C0.599609 9.65753 0.599609 9.74633 0.599609 9.83513C0.604409 9.83513 0.611609 9.83513 0.616409 9.83753C0.616409 9.83513 0.616409 9.83273 0.616409 9.83273Z" fill="#4A4A4A"/>
<path d="M0.617188 9.57597C0.617188 9.66237 0.617188 9.74637 0.617188 9.83277C0.617188 9.83517 0.617188 9.83517 0.617188 9.83757C0.621988 9.83757 0.626788 9.83757 0.629188 9.83757C0.629188 9.74877 0.631588 9.65997 0.631588 9.57117C0.626788 9.57837 0.621988 9.57117 0.617188 9.57117C0.617188 9.57117 0.617188 9.57357 0.617188 9.57597Z" fill="#4A4A4A"/>
<path d="M0.631588 9.5712C0.626788 9.5712 0.621988 9.5712 0.617188 9.5712C0.621988 9.56879 0.626788 9.5784 0.631588 9.5712Z" fill="#4A4A4A"/>
<path d="M0.616409 7.75913C0.609209 7.68473 0.633209 7.60553 0.599609 7.53113C0.599609 7.60793 0.599609 7.68713 0.599609 7.76393C0.604409 7.76393 0.611609 7.76393 0.616409 7.76153C0.616409 7.76153 0.616409 7.76153 0.616409 7.75913Z" fill="#4A4A4A"/>
<path d="M0.616409 7.75917C0.616409 7.76157 0.616409 7.76397 0.616409 7.76397C0.618809 7.76397 0.623609 7.76397 0.626009 7.76397C0.618809 7.68717 0.669209 7.60317 0.599609 7.53357C0.633209 7.60557 0.609209 7.68237 0.616409 7.75917Z" fill="#4A4A4A"/>
<path d="M23.3833 8.03273C23.3881 8.03033 23.3953 8.02313 23.4001 8.03273C23.4001 7.95593 23.4001 7.87673 23.4001 7.79993C23.3665 7.87433 23.3881 7.95353 23.3833 8.03273Z" fill="#4A4A4A"/>
<path d="M23.3732 8.03028C23.378 8.02308 23.3804 8.03268 23.3828 8.03028C23.3876 7.95348 23.366 7.87429 23.3996 7.79749C23.3324 7.86949 23.3804 7.95348 23.3732 8.03028Z" fill="#4A4A4A"/>
<path d="M23.3828 8.51991C23.3876 8.51991 23.3948 8.52231 23.3996 8.53431C23.3996 8.45751 23.3996 8.37831 23.3996 8.30151C23.3924 8.31351 23.3876 8.31831 23.3828 8.31591C23.3828 8.38311 23.3828 8.45031 23.3828 8.51991Z" fill="#4A4A4A"/>
<path d="M23.3835 8.31355C23.3787 8.31115 23.3739 8.30875 23.3715 8.29675C23.3715 8.37595 23.3715 8.45275 23.3691 8.53195C23.3739 8.52235 23.3787 8.51995 23.3835 8.51755C23.3835 8.45035 23.3835 8.38315 23.3835 8.31355Z" fill="#4A4A4A"/>
<path d="M23.3828 8.53189C23.3876 8.53429 23.3948 8.53429 23.3996 8.53429C23.3948 8.52229 23.3876 8.51749 23.3828 8.51989C23.3828 8.52229 23.3828 8.52709 23.3828 8.53189Z" fill="#4A4A4A"/>
<path d="M23.3835 8.5319C23.3835 8.5271 23.3835 8.5223 23.3835 8.5199C23.3787 8.5199 23.3739 8.5247 23.3691 8.5343C23.3739 8.5319 23.3787 8.5319 23.3835 8.5319Z" fill="#4A4A4A"/>
<path d="M23.3828 8.29919C23.3828 8.30399 23.3828 8.30879 23.3828 8.31359C23.3876 8.31599 23.3924 8.31119 23.3996 8.29919C23.3948 8.29919 23.3876 8.29919 23.3828 8.29919Z" fill="#4A4A4A"/>
<path d="M23.3831 8.29915C23.3783 8.29675 23.3759 8.29675 23.3711 8.29675C23.3759 8.30635 23.3783 8.31115 23.3831 8.31355C23.3831 8.30875 23.3831 8.30395 23.3831 8.29915Z" fill="#4A4A4A"/>
<path d="M23.3828 9.59995C23.3828 9.60235 23.3828 9.60235 23.3828 9.60475C23.3876 9.60475 23.3948 9.61435 23.3996 9.60475C23.3996 9.52795 23.3996 9.44875 23.3996 9.37195C23.3948 9.38395 23.3876 9.38635 23.3828 9.38635C23.3828 9.45355 23.3828 9.52795 23.3828 9.59995Z" fill="#4A4A4A"/>
<path d="M23.3835 9.59991C23.3835 9.52791 23.3835 9.45591 23.3835 9.38391C23.3787 9.38391 23.3739 9.37911 23.3691 9.36951C23.3691 9.44871 23.3691 9.52551 23.3715 9.60471C23.3763 9.61191 23.3811 9.60231 23.3859 9.60471C23.3835 9.60231 23.3835 9.59991 23.3835 9.59991Z" fill="#4A4A4A"/>
<path d="M23.3828 9.37431C23.3828 9.37671 23.3828 9.3791 23.3828 9.3839C23.3876 9.3839 23.3948 9.3815 23.3996 9.36951C23.3948 9.36951 23.3876 9.36951 23.3828 9.36951C23.3828 9.36951 23.3828 9.37191 23.3828 9.37431Z" fill="#4A4A4A"/>
<path d="M23.3835 9.37431C23.3835 9.37191 23.3835 9.37191 23.3835 9.36951C23.3787 9.36951 23.3739 9.36951 23.3691 9.36951C23.3739 9.3791 23.3787 9.3815 23.3835 9.3839C23.3835 9.3791 23.3835 9.37671 23.3835 9.37431Z" fill="#4A4A4A"/>
<path d="M23.3828 9.7967C23.3828 9.7991 23.3828 9.7991 23.3828 9.8015C23.3876 9.8015 23.3948 9.8015 23.3996 9.8015C23.3996 9.7343 23.3996 9.66709 23.3996 9.60229C23.3948 9.61189 23.3876 9.60469 23.3828 9.60229C23.3828 9.66709 23.3828 9.7319 23.3828 9.7967Z" fill="#4A4A4A"/>
<path d="M23.3835 9.7967C23.3835 9.7319 23.3835 9.66709 23.3835 9.60229C23.3787 9.60229 23.3763 9.60949 23.3691 9.60229C23.3691 9.66949 23.3691 9.7367 23.3691 9.8015C23.3739 9.8015 23.3787 9.8015 23.3811 9.8015C23.3835 9.8015 23.3835 9.7991 23.3835 9.7967Z" fill="#4A4A4A"/>
<path d="M0.616409 10.0296C0.616409 9.96477 0.616409 9.89996 0.616409 9.83516C0.611609 9.83516 0.604409 9.83276 0.599609 9.83276C0.599609 9.89996 0.599609 9.96717 0.599609 10.032C0.604409 10.032 0.611609 10.032 0.616409 10.032C0.616409 10.0344 0.616409 10.032 0.616409 10.0296Z" fill="#4A4A4A"/>
<path d="M0.617188 9.83755C0.617188 9.90235 0.617188 9.96715 0.617188 10.0319C0.617188 10.0343 0.617188 10.0367 0.617188 10.0391C0.621988 10.0391 0.626788 10.0391 0.629188 10.0391C0.629188 9.97195 0.629188 9.90715 0.629188 9.83995C0.624388 9.84475 0.621988 9.83515 0.617188 9.83755Z" fill="#4A4A4A"/>
<path d="M0.629188 9.83755C0.624388 9.83755 0.619588 9.83755 0.617188 9.83755C0.621988 9.83515 0.624388 9.84475 0.629188 9.83755Z" fill="#4A4A4A"/>
<path d="M23.3828 10.1687C23.3876 10.1711 23.3948 10.1783 23.3996 10.1687C23.3996 10.1015 23.3996 10.0343 23.3996 9.96948C23.3948 9.96948 23.3876 9.96948 23.3828 9.96948C23.3828 10.0367 23.3828 10.1039 23.3828 10.1687Z" fill="#4A4A4A"/>
<path d="M23.3831 9.96948C23.3783 9.96948 23.3759 9.96948 23.3711 9.96948C23.3711 10.0367 23.3711 10.1039 23.3711 10.1687C23.3759 10.1759 23.3783 10.1663 23.3831 10.1687C23.3831 10.1039 23.3831 10.0367 23.3831 9.96948Z" fill="#4A4A4A"/>
<path d="M0.616409 10.2024C0.611609 10.2024 0.604409 10.2024 0.599609 10.2024C0.599609 10.2696 0.599609 10.3368 0.599609 10.4016C0.633209 10.3392 0.611609 10.2696 0.616409 10.2024Z" fill="#4A4A4A"/>
<path d="M0.628409 10.2047C0.623609 10.2047 0.621209 10.2047 0.616409 10.2047C0.611609 10.2719 0.633209 10.3391 0.599609 10.4039C0.664409 10.3439 0.623609 10.2695 0.628409 10.2047Z" fill="#4A4A4A"/>
<path d="M0.616409 7.77836C0.611609 7.78076 0.606809 7.77836 0.599609 7.76636C0.599609 7.82156 0.599609 7.87676 0.599609 7.93436C0.630809 7.88396 0.616409 7.83116 0.616409 7.77836Z" fill="#4A4A4A"/>
<path d="M0.626009 7.76392C0.623609 7.77352 0.618809 7.77832 0.616409 7.77832C0.614009 7.83112 0.628409 7.88392 0.599609 7.93192C0.652409 7.88392 0.630809 7.82152 0.626009 7.76392Z" fill="#4A4A4A"/>
<path d="M0.616409 7.76392C0.611609 7.76392 0.604409 7.76632 0.599609 7.76632C0.606809 7.77832 0.611609 7.78312 0.616409 7.77832C0.616409 7.77352 0.616409 7.76872 0.616409 7.76392Z" fill="#4A4A4A"/>
<path d="M0.617188 7.77832C0.621988 7.77592 0.624388 7.77352 0.626788 7.76392C0.624388 7.76392 0.619588 7.76392 0.617188 7.76392C0.617188 7.76872 0.617188 7.77352 0.617188 7.77832Z" fill="#4A4A4A"/>
<path d="M23.3828 9.95512C23.3876 9.95272 23.3924 9.95752 23.3996 9.96952C23.3996 9.91432 23.3996 9.85911 23.3996 9.80151C23.3948 9.80151 23.3876 9.80151 23.3828 9.80151C23.3828 9.85431 23.3828 9.90472 23.3828 9.95512Z" fill="#4A4A4A"/>
<path d="M23.3831 9.80151C23.3783 9.80151 23.3735 9.80151 23.3711 9.80151C23.3711 9.85671 23.3711 9.91192 23.3735 9.96952C23.3759 9.95992 23.3807 9.95512 23.3855 9.95512C23.3831 9.90472 23.3831 9.85431 23.3831 9.80151Z" fill="#4A4A4A"/>
<path d="M23.3828 9.96959C23.3876 9.96959 23.3948 9.96959 23.3996 9.96959C23.3924 9.95759 23.3876 9.95279 23.3828 9.95519C23.3828 9.95999 23.3828 9.96479 23.3828 9.96959Z" fill="#4A4A4A"/>
<path d="M23.3831 9.96948C23.3831 9.96468 23.3831 9.95988 23.3831 9.95508C23.3783 9.95748 23.3759 9.95988 23.3711 9.96948C23.3759 9.96948 23.3783 9.96948 23.3831 9.96948Z" fill="#4A4A4A"/>
<path d="M0.616409 10.0367C0.611609 10.0367 0.604409 10.0367 0.599609 10.0367C0.599609 10.0919 0.599609 10.1471 0.599609 10.2047C0.604409 10.1927 0.611609 10.1879 0.616409 10.1903C0.616409 10.1375 0.616409 10.0871 0.616409 10.0367Z" fill="#4A4A4A"/>
<path d="M0.617188 10.1879C0.621988 10.1903 0.624388 10.1927 0.629188 10.2023C0.629188 10.1471 0.629188 10.0919 0.629188 10.0343C0.624388 10.0343 0.619588 10.0343 0.617188 10.0343C0.617188 10.0871 0.617188 10.1375 0.617188 10.1879Z" fill="#4A4A4A"/>
<path d="M0.616409 10.1951C0.616409 10.1927 0.616409 10.1903 0.616409 10.1903C0.611609 10.1879 0.604409 10.1927 0.599609 10.2047C0.604409 10.2047 0.611609 10.2047 0.616409 10.2047C0.616409 10.1999 0.616409 10.1975 0.616409 10.1951Z" fill="#4A4A4A"/>
<path d="M0.617188 10.1951C0.617188 10.1975 0.617188 10.2023 0.617188 10.2047C0.621988 10.2047 0.624388 10.2047 0.629188 10.2047C0.624388 10.1951 0.621988 10.1903 0.617188 10.1903C0.617188 10.1903 0.617188 10.1927 0.617188 10.1951Z" fill="#4A4A4A"/>
</svg>
