<svg width="24" height="24" viewBox="0 0 24 24" fill="none" xmlns="http://www.w3.org/2000/svg">
<path d="M23.5055 5.6294C23.229 4.60122 22.4183 3.79072 21.3903 3.51387C19.5122 3 11.9997 3 11.9997 3C11.9997 3 4.48756 3 2.60948 3.49439C1.60122 3.77095 0.770802 4.60137 0.494239 5.6294C0 7.50733 0 11.4019 0 11.4019C0 11.4019 0 15.3161 0.494239 17.1744C0.771095 18.2025 1.58145 19.013 2.60962 19.2898C4.50733 19.8038 12 19.8038 12 19.8038C12 19.8038 19.5122 19.8038 21.3903 19.3095C22.4185 19.0327 23.229 18.2222 23.5058 17.1942C23.9999 15.3161 23.9999 11.4217 23.9999 11.4217C23.9999 11.4217 24.0197 7.50733 23.5055 5.6294V5.6294ZM9.60793 14.9999V7.80396L15.8549 11.4019L9.60793 14.9999Z" fill="white"/>
</svg>
