<svg width="24" height="18" viewBox="0 0 24 18" fill="none" xmlns="http://www.w3.org/2000/svg">
<path d="M23.3832 7.54314C23.3664 6.83754 23.3688 6.13434 23.304 5.43114C23.2464 4.78794 23.1672 4.15194 23.004 3.52554C22.704 2.37834 21.7656 1.54554 20.5944 1.35594C19.5024 1.17834 18.3984 1.13274 17.2968 1.06074C16.7592 1.02474 16.2216 1.02234 15.684 0.995938C15.1128 0.969538 14.5392 0.967138 13.968 0.962338C12.3336 0.955138 10.6992 0.933538 9.0648 0.983938C8.4144 1.00554 7.7664 1.02714 7.1184 1.04874C6.3192 1.07514 5.5224 1.12314 4.7256 1.18554C4.2504 1.22394 3.7728 1.26234 3.3072 1.36314C2.112 1.62714 1.3176 2.34474 1.0008 3.53514C0.7296 4.54794 0.6576 5.59194 0.636 6.63594C0.6312 6.90234 0.6288 7.16634 0.6024 7.43034C0.6024 7.46394 0.6024 7.49754 0.6024 7.53114C0.672 7.60074 0.6216 7.68474 0.6288 7.76154C0.6312 7.81914 0.6528 7.88154 0.6024 7.92954C0.6024 7.96314 0.6024 7.99674 0.6024 8.03034C0.6552 8.11914 0.648 8.20794 0.6024 8.29674C0.6024 8.61834 0.6024 8.94234 0.6024 9.26394C0.6648 9.35994 0.624 9.46554 0.6336 9.56634C0.6336 9.65514 0.6312 9.74394 0.6312 9.83274C0.6312 9.89994 0.6312 9.96474 0.6312 10.0319C0.6312 10.0871 0.6312 10.1423 0.6312 10.1999C0.624 10.2695 0.6648 10.3439 0.6 10.4015C0.6 10.4351 0.6 10.4687 0.6 10.5023C0.6384 10.6991 0.6216 10.9007 0.6288 11.0975C0.6504 11.6975 0.6552 12.2951 0.7272 12.8927C0.7992 13.4663 0.8544 14.0399 1.032 14.5943C1.3176 15.4871 1.9032 16.1039 2.7672 16.4543C3.1776 16.6199 3.6144 16.6631 4.0512 16.7231C5.0304 16.8575 6.0192 16.8863 7.0032 16.9439C7.6344 16.9823 8.268 16.9823 8.8992 17.0087C9.5808 17.0375 10.2648 17.0303 10.9488 17.0399C11.9376 17.0519 12.9264 17.0615 13.9152 17.0231C14.7792 16.9895 15.648 16.9823 16.512 16.9535C17.1936 16.9319 17.8752 16.8935 18.5568 16.8527C19.2384 16.8119 19.9176 16.7495 20.592 16.6463C21.7824 16.4639 22.7232 15.6167 23.0064 14.4479C23.1816 13.7231 23.2728 12.9839 23.3232 12.2423C23.3664 11.6111 23.3736 10.9775 23.3784 10.3439C23.3784 10.2863 23.3784 10.2263 23.3784 10.1687C23.3736 10.1687 23.3712 10.1759 23.3664 10.1687C23.3664 10.1015 23.3664 10.0343 23.3664 9.96954C23.3664 9.91434 23.3664 9.85914 23.364 9.80154C23.364 9.73434 23.364 9.66714 23.364 9.60234C23.364 9.52314 23.364 9.44634 23.3616 9.36714C23.3688 9.27834 23.3328 9.18234 23.3928 9.09834C23.3928 9.04314 23.3928 8.98794 23.3928 8.93034C23.3256 8.80074 23.3736 8.66154 23.3616 8.52954C23.3616 8.45034 23.364 8.37354 23.364 8.29434C23.364 8.20554 23.364 8.11674 23.3664 8.02794C23.3736 7.95114 23.3256 7.86714 23.3928 7.79514C23.3928 7.78314 23.3928 7.77354 23.3928 7.76154C23.3664 7.69194 23.3904 7.61514 23.3832 7.54314Z" fill="#FE0000"/>
<path d="M9.7344 12.4103C9.7344 10.1303 9.7344 7.87432 9.7344 5.58472C11.7096 6.71992 13.6728 7.84792 15.6624 8.99272C13.6776 10.1351 11.7144 11.2679 9.7344 12.4103Z" fill="white"/>
<path d="M23.4 8.93266C23.4 8.79826 23.4 8.66626 23.4 8.53186C23.3952 8.53186 23.388 8.53186 23.3832 8.53186C23.3928 8.66626 23.3616 8.80066 23.4 8.93266Z" fill="#FE0000"/>
<path d="M23.3832 8.53186C23.3784 8.53186 23.3736 8.53186 23.3688 8.53186C23.3784 8.66626 23.3328 8.80306 23.4 8.93266C23.3616 8.80066 23.3928 8.66626 23.3832 8.53186Z" fill="#FE0000"/>
<path d="M0.6 9.2688C0.6 9.3696 0.6 9.468 0.6 9.5688C0.6048 9.5688 0.612 9.5688 0.6168 9.5688C0.6096 9.468 0.636 9.3672 0.6 9.2688Z" fill="#FE0000"/>
<path d="M0.6168 9.56875C0.6216 9.56875 0.6264 9.56875 0.6312 9.56875C0.6216 9.46796 0.6624 9.36236 0.6 9.26636C0.636 9.36716 0.6096 9.46796 0.6168 9.56875Z" fill="#FE0000"/>
<path d="M0.6 8.03271C0.6 8.12151 0.6 8.21032 0.6 8.29912C0.6264 8.21032 0.6264 8.12151 0.6 8.03271Z" fill="#FE0000"/>
<path d="M0.6 8.03271C0.6264 8.12151 0.6264 8.21032 0.6 8.29912C0.6456 8.21032 0.6528 8.12151 0.6 8.03271Z" fill="#FE0000"/>
<path d="M23.3832 8.04476C23.3832 8.12876 23.3832 8.21516 23.3832 8.29916C23.388 8.29916 23.3952 8.29916 23.4 8.29916C23.4 8.21036 23.4 8.12156 23.4 8.03276C23.3952 8.02076 23.388 8.03036 23.3832 8.03276C23.3832 8.03516 23.3832 8.03996 23.3832 8.04476Z" fill="#FE0000"/>
<path d="M23.3832 8.04476C23.3832 8.03996 23.3832 8.03756 23.3832 8.03276C23.3784 8.03516 23.376 8.02556 23.3736 8.03276C23.3736 8.12156 23.3736 8.21036 23.3712 8.29916C23.376 8.29916 23.3784 8.29916 23.3832 8.29916C23.3832 8.21276 23.3832 8.12876 23.3832 8.04476Z" fill="#FE0000"/>
<path d="M23.3832 9.36955C23.388 9.36955 23.3952 9.36955 23.4 9.36955C23.4 9.28075 23.4 9.19195 23.4 9.10315C23.3664 9.18715 23.3904 9.27835 23.3832 9.36955Z" fill="#FE0000"/>
<path d="M23.3688 9.36951C23.3736 9.36951 23.3784 9.36951 23.3832 9.36951C23.3904 9.28071 23.3664 9.18951 23.4 9.10071C23.34 9.18471 23.376 9.27831 23.3688 9.36951Z" fill="#FE0000"/>
<path d="M0.6168 9.83273C0.6168 9.74633 0.6168 9.66233 0.6168 9.57593C0.6168 9.57353 0.6168 9.57113 0.6168 9.56873C0.612 9.56873 0.6048 9.56873 0.6 9.56873C0.6 9.65753 0.6 9.74633 0.6 9.83513C0.6048 9.83513 0.612 9.83513 0.6168 9.83753C0.6168 9.83513 0.6168 9.83273 0.6168 9.83273Z" fill="#FE0000"/>
<path d="M0.616794 9.57597C0.616794 9.66237 0.616794 9.74637 0.616794 9.83277C0.616794 9.83517 0.616794 9.83517 0.616794 9.83757C0.621594 9.83757 0.626394 9.83757 0.628794 9.83757C0.628794 9.74877 0.631194 9.65997 0.631194 9.57117C0.626394 9.57837 0.621594 9.57117 0.616794 9.57117C0.616794 9.57117 0.616794 9.57357 0.616794 9.57597Z" fill="#FE0000"/>
<path d="M0.631194 9.5712C0.626394 9.5712 0.621594 9.5712 0.616794 9.5712C0.621594 9.56879 0.626394 9.5784 0.631194 9.5712Z" fill="#FE0000"/>
<path d="M0.6168 7.75913C0.6096 7.68473 0.6336 7.60553 0.6 7.53113C0.6 7.60793 0.6 7.68713 0.6 7.76393C0.6048 7.76393 0.612 7.76393 0.6168 7.76153C0.6168 7.76153 0.6168 7.76153 0.6168 7.75913Z" fill="#FE0000"/>
<path d="M0.6168 7.75917C0.6168 7.76157 0.6168 7.76397 0.6168 7.76397C0.6192 7.76397 0.624 7.76397 0.6264 7.76397C0.6192 7.68717 0.6696 7.60317 0.6 7.53357C0.6336 7.60557 0.6096 7.68237 0.6168 7.75917Z" fill="#FE0000"/>
<path d="M23.3832 8.03273C23.388 8.03033 23.3952 8.02313 23.4 8.03273C23.4 7.95593 23.4 7.87673 23.4 7.79993C23.3664 7.87433 23.388 7.95353 23.3832 8.03273Z" fill="#FE0000"/>
<path d="M23.3736 8.03028C23.3784 8.02308 23.3808 8.03268 23.3832 8.03028C23.388 7.95348 23.3664 7.87429 23.4 7.79749C23.3328 7.86949 23.3808 7.95348 23.3736 8.03028Z" fill="#FE0000"/>
<path d="M23.3832 8.51991C23.388 8.51991 23.3952 8.52231 23.4 8.53431C23.4 8.45751 23.4 8.37831 23.4 8.30151C23.3928 8.31351 23.388 8.31831 23.3832 8.31591C23.3832 8.38311 23.3832 8.45031 23.3832 8.51991Z" fill="#FE0000"/>
<path d="M23.3832 8.31355C23.3784 8.31115 23.3736 8.30875 23.3712 8.29675C23.3712 8.37595 23.3712 8.45275 23.3688 8.53195C23.3736 8.52235 23.3784 8.51995 23.3832 8.51755C23.3832 8.45035 23.3832 8.38315 23.3832 8.31355Z" fill="#FE0000"/>
<path d="M23.3832 8.53189C23.388 8.53429 23.3952 8.53429 23.4 8.53429C23.3952 8.52229 23.388 8.51749 23.3832 8.51989C23.3832 8.52229 23.3832 8.52709 23.3832 8.53189Z" fill="#FE0000"/>
<path d="M23.3832 8.5319C23.3832 8.5271 23.3832 8.5223 23.3832 8.5199C23.3784 8.5199 23.3736 8.5247 23.3688 8.5343C23.3736 8.5319 23.3784 8.5319 23.3832 8.5319Z" fill="#FE0000"/>
<path d="M23.3832 8.29919C23.3832 8.30399 23.3832 8.30879 23.3832 8.31359C23.388 8.31599 23.3928 8.31119 23.4 8.29919C23.3952 8.29919 23.388 8.29919 23.3832 8.29919Z" fill="#FE0000"/>
<path d="M23.3832 8.29915C23.3784 8.29675 23.376 8.29675 23.3712 8.29675C23.376 8.30635 23.3784 8.31115 23.3832 8.31355C23.3832 8.30875 23.3832 8.30395 23.3832 8.29915Z" fill="#FE0000"/>
<path d="M23.3832 9.59995C23.3832 9.60235 23.3832 9.60235 23.3832 9.60475C23.388 9.60475 23.3952 9.61435 23.4 9.60475C23.4 9.52795 23.4 9.44875 23.4 9.37195C23.3952 9.38395 23.388 9.38635 23.3832 9.38635C23.3832 9.45355 23.3832 9.52795 23.3832 9.59995Z" fill="#FE0000"/>
<path d="M23.3832 9.59991C23.3832 9.52791 23.3832 9.45591 23.3832 9.38391C23.3784 9.38391 23.3736 9.37911 23.3688 9.36951C23.3688 9.44871 23.3688 9.52551 23.3712 9.60471C23.376 9.61191 23.3808 9.60231 23.3856 9.60471C23.3832 9.60231 23.3832 9.59991 23.3832 9.59991Z" fill="#FE0000"/>
<path d="M23.3832 9.37431C23.3832 9.37671 23.3832 9.3791 23.3832 9.3839C23.388 9.3839 23.3952 9.3815 23.4 9.36951C23.3952 9.36951 23.388 9.36951 23.3832 9.36951C23.3832 9.36951 23.3832 9.37191 23.3832 9.37431Z" fill="#FE0000"/>
<path d="M23.3832 9.37431C23.3832 9.37191 23.3832 9.37191 23.3832 9.36951C23.3784 9.36951 23.3736 9.36951 23.3688 9.36951C23.3736 9.3791 23.3784 9.3815 23.3832 9.3839C23.3832 9.3791 23.3832 9.37671 23.3832 9.37431Z" fill="#FE0000"/>
<path d="M23.3832 9.7967C23.3832 9.7991 23.3832 9.7991 23.3832 9.8015C23.388 9.8015 23.3952 9.8015 23.4 9.8015C23.4 9.7343 23.4 9.66709 23.4 9.60229C23.3952 9.61189 23.388 9.60469 23.3832 9.60229C23.3832 9.66709 23.3832 9.7319 23.3832 9.7967Z" fill="#FE0000"/>
<path d="M23.3832 9.7967C23.3832 9.7319 23.3832 9.66709 23.3832 9.60229C23.3784 9.60229 23.376 9.60949 23.3688 9.60229C23.3688 9.66949 23.3688 9.7367 23.3688 9.8015C23.3736 9.8015 23.3784 9.8015 23.3808 9.8015C23.3832 9.8015 23.3832 9.7991 23.3832 9.7967Z" fill="#FE0000"/>
<path d="M0.6168 10.0296C0.6168 9.96477 0.6168 9.89996 0.6168 9.83516C0.612 9.83516 0.6048 9.83276 0.6 9.83276C0.6 9.89996 0.6 9.96717 0.6 10.032C0.6048 10.032 0.612 10.032 0.6168 10.032C0.6168 10.0344 0.6168 10.032 0.6168 10.0296Z" fill="#FE0000"/>
<path d="M0.616794 9.83755C0.616794 9.90235 0.616794 9.96715 0.616794 10.0319C0.616794 10.0343 0.616794 10.0367 0.616794 10.0391C0.621594 10.0391 0.626394 10.0391 0.628794 10.0391C0.628794 9.97195 0.628794 9.90715 0.628794 9.83995C0.623994 9.84475 0.621594 9.83515 0.616794 9.83755Z" fill="#FE0000"/>
<path d="M0.628794 9.83755C0.623994 9.83755 0.619194 9.83755 0.616794 9.83755C0.621594 9.83515 0.623994 9.84475 0.628794 9.83755Z" fill="#FE0000"/>
<path d="M23.3832 10.1687C23.388 10.1711 23.3952 10.1783 23.4 10.1687C23.4 10.1015 23.4 10.0343 23.4 9.96948C23.3952 9.96948 23.388 9.96948 23.3832 9.96948C23.3832 10.0367 23.3832 10.1039 23.3832 10.1687Z" fill="#FE0000"/>
<path d="M23.3832 9.96948C23.3784 9.96948 23.376 9.96948 23.3712 9.96948C23.3712 10.0367 23.3712 10.1039 23.3712 10.1687C23.376 10.1759 23.3784 10.1663 23.3832 10.1687C23.3832 10.1039 23.3832 10.0367 23.3832 9.96948Z" fill="#FE0000"/>
<path d="M0.6168 10.2024C0.612 10.2024 0.6048 10.2024 0.6 10.2024C0.6 10.2696 0.6 10.3368 0.6 10.4016C0.6336 10.3392 0.612 10.2696 0.6168 10.2024Z" fill="#FE0000"/>
<path d="M0.6288 10.2047C0.624 10.2047 0.6216 10.2047 0.6168 10.2047C0.612 10.2719 0.6336 10.3391 0.6 10.4039C0.6648 10.3439 0.624 10.2695 0.6288 10.2047Z" fill="#FE0000"/>
<path d="M0.6168 7.77836C0.612 7.78076 0.6072 7.77836 0.6 7.76636C0.6 7.82156 0.6 7.87676 0.6 7.93436C0.6312 7.88396 0.6168 7.83116 0.6168 7.77836Z" fill="#FE0000"/>
<path d="M0.6264 7.76392C0.624 7.77352 0.6192 7.77832 0.6168 7.77832C0.6144 7.83112 0.6288 7.88392 0.6 7.93192C0.6528 7.88392 0.6312 7.82152 0.6264 7.76392Z" fill="#FE0000"/>
<path d="M0.6168 7.76392C0.612 7.76392 0.6048 7.76632 0.6 7.76632C0.6072 7.77832 0.612 7.78312 0.6168 7.77832C0.6168 7.77352 0.6168 7.76872 0.6168 7.76392Z" fill="#FE0000"/>
<path d="M0.616794 7.77832C0.621594 7.77592 0.623994 7.77352 0.626394 7.76392C0.623994 7.76392 0.619194 7.76392 0.616794 7.76392C0.616794 7.76872 0.616794 7.77352 0.616794 7.77832Z" fill="#FE0000"/>
<path d="M23.3832 9.95512C23.388 9.95272 23.3928 9.95752 23.4 9.96952C23.4 9.91432 23.4 9.85911 23.4 9.80151C23.3952 9.80151 23.388 9.80151 23.3832 9.80151C23.3832 9.85431 23.3832 9.90472 23.3832 9.95512Z" fill="#FE0000"/>
<path d="M23.3832 9.80151C23.3784 9.80151 23.3736 9.80151 23.3712 9.80151C23.3712 9.85671 23.3712 9.91192 23.3736 9.96952C23.376 9.95992 23.3808 9.95512 23.3856 9.95512C23.3832 9.90472 23.3832 9.85431 23.3832 9.80151Z" fill="#FE0000"/>
<path d="M23.3832 9.96959C23.388 9.96959 23.3952 9.96959 23.4 9.96959C23.3928 9.95759 23.388 9.95279 23.3832 9.95519C23.3832 9.95999 23.3832 9.96479 23.3832 9.96959Z" fill="#FE0000"/>
<path d="M23.3832 9.96948C23.3832 9.96468 23.3832 9.95988 23.3832 9.95508C23.3784 9.95748 23.376 9.95988 23.3712 9.96948C23.376 9.96948 23.3784 9.96948 23.3832 9.96948Z" fill="#FE0000"/>
<path d="M0.6168 10.0367C0.612 10.0367 0.6048 10.0367 0.6 10.0367C0.6 10.0919 0.6 10.1471 0.6 10.2047C0.6048 10.1927 0.612 10.1879 0.6168 10.1903C0.6168 10.1375 0.6168 10.0871 0.6168 10.0367Z" fill="#FE0000"/>
<path d="M0.616794 10.1879C0.621594 10.1903 0.623994 10.1927 0.628794 10.2023C0.628794 10.1471 0.628794 10.0919 0.628794 10.0343C0.623994 10.0343 0.619194 10.0343 0.616794 10.0343C0.616794 10.0871 0.616794 10.1375 0.616794 10.1879Z" fill="#FE0000"/>
<path d="M0.6168 10.1951C0.6168 10.1927 0.6168 10.1903 0.6168 10.1903C0.612 10.1879 0.6048 10.1927 0.6 10.2047C0.6048 10.2047 0.612 10.2047 0.6168 10.2047C0.6168 10.1999 0.6168 10.1975 0.6168 10.1951Z" fill="#FE0000"/>
<path d="M0.616794 10.1951C0.616794 10.1975 0.616794 10.2023 0.616794 10.2047C0.621594 10.2047 0.623994 10.2047 0.628794 10.2047C0.623994 10.1951 0.621594 10.1903 0.616794 10.1903C0.616794 10.1903 0.616794 10.1927 0.616794 10.1951Z" fill="#FE0000"/>
</svg>
