<svg width="24" height="24" viewBox="0 0 24 24" fill="none" xmlns="http://www.w3.org/2000/svg">
<path d="M15.0774 11.0928C15.4158 8.60554 13.7496 6.32521 11.3559 5.99957C8.9622 5.67394 6.74742 7.4263 6.40905 9.9136C6.07069 12.4009 7.73687 14.6812 10.1306 15.0069C12.5243 15.3325 14.7391 13.5801 15.0774 11.0928Z" fill="white"/>
<path d="M23.1766 9.59963C23.4961 8.92313 22.7851 7.75163 22.5331 7.31513C22.2856 6.88913 21.6076 6.36113 20.5516 6.44513C20.5546 6.44063 20.5576 6.43613 20.5606 6.43163C21.0016 5.73113 21.3811 5.00213 21.4966 4.16513C21.6226 3.25313 21.2551 2.47913 20.4256 2.08013C19.9906 1.87013 19.5121 1.71413 19.0366 1.63463C18.5326 1.54913 18.1231 1.36313 17.7961 0.976129C17.6956 0.857629 17.5831 0.749629 17.4736 0.640129C16.7191 -0.120371 15.9841 -0.199871 15.0841 0.383629C15.0451 0.409129 15.0061 0.436129 14.9686 0.463129C14.2636 0.979129 13.7161 1.64363 13.1761 2.32013C13.0021 2.53463 12.9511 2.77163 13.0606 3.01463C13.1881 3.29513 13.3306 3.57863 13.5196 3.82013C14.1496 4.62713 14.8966 5.31863 15.7396 5.94713C16.4566 6.52163 17.2486 7.02863 18.1096 7.41713C18.4456 7.56863 18.8116 7.66313 19.1731 7.74113C19.4581 7.80263 19.7011 7.69163 19.8721 7.43063C19.9411 7.32413 20.0146 7.21913 20.0881 7.11563C20.1316 7.23113 20.1931 7.35413 20.2636 7.48163C20.2171 7.54163 20.1751 7.59263 20.1406 7.64513C19.9021 7.99763 19.5616 8.15513 19.1536 8.08013C18.7741 8.01113 18.3856 7.92413 18.0391 7.76513C16.4896 7.04663 15.1396 6.04313 13.9441 4.82813C13.5016 4.37813 13.0726 3.91763 12.8056 3.33263C12.5941 2.86913 12.5761 2.43263 12.9436 2.03213C12.9841 1.98713 13.0111 1.93163 13.0621 1.85363C12.5146 1.60763 11.9746 1.39763 11.3821 1.38563C10.7326 1.37063 10.4401 1.76213 10.6141 2.38913C10.7761 2.97263 11.1226 3.45413 11.4991 3.91163C12.6541 5.31563 14.0236 6.48713 15.4936 7.54613C16.5001 8.27213 17.5426 8.94413 18.6781 9.45113C18.7171 10.6256 19.0426 11.4746 19.1911 12.3686C19.1956 12.3956 19.1941 12.4256 19.1971 12.4541L17.5801 17.6651V17.6666C15.8596 16.6766 13.9741 16.2371 13.9741 16.2371C13.9741 16.2371 13.8181 16.2101 13.7101 16.1621C13.6006 16.1156 11.8141 21.6656 11.8141 21.6656C11.8141 21.6656 11.4571 21.6656 11.3626 21.6656C11.2696 21.6656 11.0521 19.3031 11.0521 19.0076C11.0521 18.7121 11.4256 17.4371 11.8921 16.5356C12.3586 15.6341 11.5816 15.7121 11.5816 15.7121H10.1806H8.7811C8.7811 15.7121 8.0041 15.6341 8.4706 16.5356C8.9371 17.4371 9.3106 18.7121 9.3106 19.0076C9.3106 19.3031 9.0931 21.6656 9.0001 21.6656C8.9071 21.6656 8.5486 21.6656 8.5486 21.6656C8.5486 21.6656 6.7606 16.1156 6.6526 16.1621C6.5431 16.2086 6.3886 16.2371 6.3886 16.2371C6.3886 16.2371 0.0151041 17.7176 0.0151041 21.3866C0.0151041 21.3866 -0.233896 23.4386 1.2901 23.9981H10.1821H18.5626C18.5626 23.9981 18.6271 24.0011 18.7381 23.9981H19.0741C19.1026 23.9876 19.1281 23.9726 19.1551 23.9606C20.0956 23.8271 21.8641 23.2406 22.2841 20.7566C22.2856 20.7551 22.2901 20.7521 22.2916 20.7506L22.7596 17.1581C22.7596 17.1581 23.5666 12.8876 22.0741 12.8891C21.8971 12.8891 21.7216 12.8831 21.5491 12.8726C21.5866 12.6656 21.6136 12.5156 21.6286 12.4481C21.7771 11.8151 22.8571 10.2761 23.1766 9.59963ZM19.9651 9.89813C19.9186 9.92663 19.8886 9.94313 19.8886 9.94313L19.8406 9.87113C19.8811 9.88163 19.9231 9.89063 19.9651 9.89813Z" fill="white"/>
</svg>
