<svg width="24" height="21" viewBox="0 0 24 21" fill="none" xmlns="http://www.w3.org/2000/svg">
<path d="M9.27607 0.5V2.19325C8.25767 1.78834 7.16564 1.57975 6.07362 1.57975C3.8773 1.57975 1.68098 2.41411 0 4.09509L4.08589 8.18098H5.44785V9.54294C6.50307 10.5982 7.8773 11.1503 9.2638 11.2117V13.9969H5.59509V17.6779C5.59509 19.0276 6.69939 20.1319 8.04908 20.1319H20.319C22.3558 20.1319 24 18.4877 24 16.4509V0.5H9.27607ZM7.91411 8.36503V5.72699H5.11656L3.84049 4.45092C4.53988 4.18098 5.30061 4.03374 6.07362 4.03374C7.71779 4.03374 9.25153 4.67178 10.4172 5.82515L12.1472 7.55521L11.9018 7.80061C11.2761 8.42638 10.4417 8.78221 9.54601 8.78221C8.96933 8.78221 8.40491 8.63497 7.91411 8.36503ZM21.546 16.4509C21.546 17.1258 20.9939 17.6779 20.319 17.6779C19.6442 17.6779 19.092 17.1258 19.092 16.4509V13.9969H11.7301V10.819C12.4294 10.5368 13.0798 10.1196 13.6442 9.55521L13.8896 9.30982L17.362 12.7699H19.092V11.0399L11.7301 3.71472V2.95399H21.546V16.4509Z" fill="#4A4A4A"/>
</svg>
