<svg width="23" height="24" viewBox="0 0 23 24" fill="none" xmlns="http://www.w3.org/2000/svg">
<path d="M0 24.0003H5.21978V11.9948H0C0 11.9948 0 24.0003 0 24.0003ZM2.60726 12.9604C3.37012 12.9604 3.9884 13.579 3.9884 14.3419C3.9884 15.1042 3.37012 15.7228 2.60726 15.7228C1.8444 15.7228 1.22636 15.1042 1.22636 14.3419C1.22636 13.5789 1.8444 12.9604 2.60726 12.9604Z" fill="#4A4A4A"/>
<path d="M22.3764 12.4369C22.3764 12.4369 24.0854 8.30726 18.4694 9.33448C18.4694 9.33448 15.0006 10.0611 14.6013 9.00067C14.6013 9.00067 14.3267 8.19577 15.6027 6.66431C15.6027 6.66431 18.4305 3.52278 15.23 0.459828C15.23 0.459828 13.6001 -0.914293 13.3446 1.0883C13.0893 3.09113 13.3837 3.20885 12.2842 4.76015C12.2842 4.76015 9.18991 7.74432 8.54787 10.0418C8.54787 10.0418 7.69261 12.6486 6.26343 12.6908V21.7625C6.73974 21.7537 8.27618 21.6939 9.90293 22.2605C9.90293 22.2605 12.8772 22.968 14.8145 22.968C14.8145 22.968 18.7424 23.0594 19.9403 22.13C19.9403 22.13 20.9911 21.3512 20.7755 20.3302C20.7755 20.3302 20.5795 19.6579 21.0949 19.2698C21.0949 19.2698 22.5964 18.3206 21.8633 16.8157C21.8633 16.8157 21.4784 16.1283 22.0943 15.5398C22.0943 15.5398 22.9991 14.8424 22.3754 13.9884C22.3757 13.9879 21.9597 13.2572 22.3764 12.4369Z" fill="#4A4A4A"/>
</svg>
